{"asset":{"version":"2.0","generator":"nepal_3p_static"},"scene":0,"scenes":[{"nodes":[0]}],"nodes":[{"name":"nepal_world_static","mesh":0}],"meshes":[{"name":"nepal_kukri","primitives":[{"attributes":{"POSITION":0,"NORMAL":1,"TEXCOORD_0":2},"indices":3,"material":0,"mode":4},{"attributes":{"POSITION":4,"NORMAL":5,"TEXCOORD_0":6},"indices":7,"material":1,"mode":4},{"attributes":{"POSITION":8,"NORMAL":9,"TEXCOORD_0":10},"indices":11,"material":2,"mode":4}]}],"materials":[{"name":"KNIFE_BORNBEAST_S","pbrMetallicRoughness":{"baseColorTexture":{"index":0},"metallicFactor":0.0,"roughnessFactor":0.75},"doubleSided":false},{"name":"KNIFE_BORNBEAST_N","pbrMetallicRoughness":{"baseColorTexture":{"index":1},"metallicFactor":0.0,"roughnessFactor":0.75},"doubleSided":false,"alphaMode":"BLEND"},{"name":"s_Light2","pbrMetallicRoughness":{"baseColorTexture":{"index":2},"metallicFactor":0.0,"roughnessFactor":0.75},"doubleSided":false,"alphaMode":"BLEND"}],"textures":[{"sampler":0,"source":0},{"sampler":0,"source":1},{"sampler":0,"source":2}],"images":[{"uri":"textures/KNIFE_BORNBEAST_S.png"},{"uri":"textures/KNIFE_BORNBEAST_N.png"},{"uri":"textures/s_Light2.png"}],"samplers":[{"magFilter":9729,"minFilter":9987,"wrapS":10497,"wrapT":10497}],"accessors":[{"bufferView":0,"componentType":5126,"count":822,"type":"VEC3","min":[0.02133377099340945,-0.07525743158986067,0.024245701935953115],"max":[0.09380777643667977,0.09506054102642483,0.07953293359885986]},{"bufferView":1,"componentType":5126,"count":822,"type":"VEC3"},{"bufferView":2,"componentType":5126,"count":822,"type":"VEC2"},{"bufferView":3,"componentType":5125,"count":4710,"type":"SCALAR"},{"bufferView":4,"componentType":5126,"count":822,"type":"VEC3","min":[0.02133377099340945,-0.07525743158986067,0.024245701935953115],"max":[0.09380777643667977,0.09506054102642483,0.07953293359885986]},{"bufferView":5,"componentType":5126,"count":822,"type":"VEC3"},{"bufferView":6,"componentType":5126,"count":822,"type":"VEC2"},{"bufferView":7,"componentType":5125,"count":4710,"type":"SCALAR"},{"bufferView":8,"componentType":5126,"count":48,"type":"VEC3","min":[-0.19181162121917725,-0.02271413587847392,-0.2073190356796682],"max":[0.19181503132110597,-0.022657351962127693,-0.08328175035798208]},{"bufferView":9,"componentType":5126,"count":48,"type":"VEC3"},{"bufferView":10,"componentType":5126,"count":48,"type":"VEC2"},{"bufferView":11,"componentType":5125,"count":132,"type":"SCALAR"}],"bufferViews":[{"buffer":0,"byteOffset":0,"byteLength":9864,"target":34962},{"buffer":0,"byteOffset":9864,"byteLength":9864,"target":34962},{"buffer":0,"byteOffset":19728,"byteLength":6576,"target":34962},{"buffer":0,"byteOffset":26304,"byteLength":18840,"target":34963},{"buffer":0,"byteOffset":45144,"byteLength":9864,"target":34962},{"buffer":0,"byteOffset":55008,"byteLength":9864,"target":34962},{"buffer":0,"byteOffset":64872,"byteLength":6576,"target":34962},{"buffer":0,"byteOffset":71448,"byteLength":18840,"target":34963},{"buffer":0,"byteOffset":90288,"byteLength":576,"target":34962},{"buffer":0,"byteOffset":90864,"byteLength":576,"target":34962},{"buffer":0,"byteOffset":91440,"byteLength":384,"target":34962},{"buffer":0,"byteOffset":91824,"byteLength":528,"target":34963}],"buffers":[{"uri":"nepal_world_static.bin","byteLength":92352}]}