{
  "accessors": [
    {
      "bufferView": 0,
      "componentType": 5126,
      "count": 11,
      "max": [
        1.36666667461395
      ],
      "min": [
        0.0
      ],
      "type": "SCALAR"
    },
    {
      "bufferView": 1,
      "componentType": 5126,
      "count": 11,
      "type": "VEC4"
    },
    {
      "bufferView": 2,
      "componentType": 5126,
      "count": 9,
      "max": [
        1.36666667461395
      ],
      "min": [
        0.0
      ],
      "type": "SCALAR"
    },
    {
      "bufferView": 3,
      "componentType": 5126,
      "count": 9,
      "type": "VEC4"
    },
    {
      "bufferView": 4,
      "componentType": 5126,
      "count": 5,
      "max": [
        1.36666667461395
      ],
      "min": [
        0.0
      ],
      "type": "SCALAR"
    },
    {
      "bufferView": 5,
      "componentType": 5126,
      "count": 5,
      "type": "VEC4"
    },
    {
      "bufferView": 6,
      "componentType": 5126,
      "count": 5,
      "max": [
        1.36666667461395
      ],
      "min": [
        0.0
      ],
      "type": "SCALAR"
    },
    {
      "bufferView": 7,
      "componentType": 5126,
      "count": 5,
      "type": "VEC4"
    },
    {
      "bufferView": 8,
      "componentType": 5126,
      "count": 9,
      "max": [
        1.36666667461395
      ],
      "min": [
        0.0
      ],
      "type": "SCALAR"
    },
    {
      "bufferView": 9,
      "componentType": 5126,
      "count": 9,
      "type": "VEC4"
    },
    {
      "bufferView": 10,
      "componentType": 5126,
      "count": 20,
      "max": [
        1.36666667461395
      ],
      "min": [
        0.0
      ],
      "type": "SCALAR"
    },
    {
      "bufferView": 11,
      "componentType": 5126,
      "count": 20,
      "type": "VEC4"
    },
    {
      "bufferView": 12,
      "componentType": 5126,
      "count": 23,
      "max": [
        1.36666667461395
      ],
      "min": [
        0.0
      ],
      "type": "SCALAR"
    },
    {
      "bufferView": 13,
      "componentType": 5126,
      "count": 23,
      "type": "VEC4"
    },
    {
      "bufferView": 14,
      "componentType": 5126,
      "count": 27,
      "max": [
        1.36666667461395
      ],
      "min": [
        0.0
      ],
      "type": "SCALAR"
    },
    {
      "bufferView": 15,
      "componentType": 5126,
      "count": 27,
      "type": "VEC4"
    },
    {
      "bufferView": 16,
      "componentType": 5126,
      "count": 13,
      "max": [
        1.36666667461395
      ],
      "min": [
        0.0
      ],
      "type": "SCALAR"
    },
    {
      "bufferView": 17,
      "componentType": 5126,
      "count": 13,
      "type": "VEC4"
    },
    {
      "bufferView": 18,
      "componentType": 5126,
      "count": 38,
      "max": [
        1.36666667461395
      ],
      "min": [
        0.0
      ],
      "type": "SCALAR"
    },
    {
      "bufferView": 19,
      "componentType": 5126,
      "count": 38,
      "type": "VEC4"
    },
    {
      "bufferView": 20,
      "componentType": 5126,
      "count": 1,
      "max": [
        0.0
      ],
      "min": [
        0.0
      ],
      "type": "SCALAR"
    },
    {
      "bufferView": 21,
      "componentType": 5126,
      "count": 1,
      "type": "VEC4"
    },
    {
      "bufferView": 22,
      "componentType": 5126,
      "count": 1,
      "max": [
        0.0
      ],
      "min": [
        0.0
      ],
      "type": "SCALAR"
    },
    {
      "bufferView": 23,
      "componentType": 5126,
      "count": 1,
      "type": "VEC4"
    },
    {
      "bufferView": 24,
      "componentType": 5126,
      "count": 1,
      "max": [
        0.0
      ],
      "min": [
        0.0
      ],
      "type": "SCALAR"
    },
    {
      "bufferView": 25,
      "componentType": 5126,
      "count": 1,
      "type": "VEC4"
    },
    {
      "bufferView": 26,
      "componentType": 5126,
      "count": 1,
      "max": [
        0.0
      ],
      "min": [
        0.0
      ],
      "type": "SCALAR"
    },
    {
      "bufferView": 27,
      "componentType": 5126,
      "count": 1,
      "type": "VEC4"
    },
    {
      "bufferView": 28,
      "componentType": 5126,
      "count": 1,
      "max": [
        0.0
      ],
      "min": [
        0.0
      ],
      "type": "SCALAR"
    },
    {
      "bufferView": 29,
      "componentType": 5126,
      "count": 1,
      "type": "VEC4"
    },
    {
      "bufferView": 30,
      "componentType": 5126,
      "count": 1,
      "max": [
        0.0
      ],
      "min": [
        0.0
      ],
      "type": "SCALAR"
    },
    {
      "bufferView": 31,
      "componentType": 5126,
      "count": 1,
      "type": "VEC4"
    },
    {
      "bufferView": 32,
      "componentType": 5126,
      "count": 1,
      "max": [
        0.0
      ],
      "min": [
        0.0
      ],
      "type": "SCALAR"
    },
    {
      "bufferView": 33,
      "componentType": 5126,
      "count": 1,
      "type": "VEC4"
    },
    {
      "bufferView": 34,
      "componentType": 5126,
      "count": 1,
      "max": [
        0.0
      ],
      "min": [
        0.0
      ],
      "type": "SCALAR"
    },
    {
      "bufferView": 35,
      "componentType": 5126,
      "count": 1,
      "type": "VEC4"
    },
    {
      "bufferView": 36,
      "componentType": 5126,
      "count": 1,
      "max": [
        0.0
      ],
      "min": [
        0.0
      ],
      "type": "SCALAR"
    },
    {
      "bufferView": 37,
      "componentType": 5126,
      "count": 1,
      "type": "VEC4"
    },
    {
      "bufferView": 38,
      "componentType": 5126,
      "count": 17,
      "max": [
        1.36666667461395
      ],
      "min": [
        0.0
      ],
      "type": "SCALAR"
    },
    {
      "bufferView": 39,
      "componentType": 5126,
      "count": 17,
      "type": "VEC4"
    },
    {
      "bufferView": 40,
      "componentType": 5126,
      "count": 34,
      "max": [
        1.36666667461395
      ],
      "min": [
        0.0
      ],
      "type": "SCALAR"
    },
    {
      "bufferView": 41,
      "componentType": 5126,
      "count": 34,
      "type": "VEC4"
    },
    {
      "bufferView": 42,
      "componentType": 5126,
      "count": 26,
      "max": [
        1.36666667461395
      ],
      "min": [
        0.0
      ],
      "type": "SCALAR"
    },
    {
      "bufferView": 43,
      "componentType": 5126,
      "count": 26,
      "type": "VEC4"
    },
    {
      "bufferView": 44,
      "componentType": 5126,
      "count": 35,
      "max": [
        1.36666667461395
      ],
      "min": [
        0.0
      ],
      "type": "SCALAR"
    },
    {
      "bufferView": 45,
      "componentType": 5126,
      "count": 35,
      "type": "VEC4"
    },
    {
      "bufferView": 46,
      "componentType": 5126,
      "count": 1,
      "max": [
        0.0
      ],
      "min": [
        0.0
      ],
      "type": "SCALAR"
    },
    {
      "bufferView": 47,
      "componentType": 5126,
      "count": 1,
      "type": "VEC4"
    },
    {
      "bufferView": 48,
      "componentType": 5126,
      "count": 1,
      "max": [
        0.0
      ],
      "min": [
        0.0
      ],
      "type": "SCALAR"
    },
    {
      "bufferView": 49,
      "componentType": 5126,
      "count": 1,
      "type": "VEC4"
    },
    {
      "bufferView": 50,
      "componentType": 5126,
      "count": 1,
      "max": [
        0.0
      ],
      "min": [
        0.0
      ],
      "type": "SCALAR"
    },
    {
      "bufferView": 51,
      "componentType": 5126,
      "count": 1,
      "type": "VEC4"
    },
    {
      "bufferView": 52,
      "componentType": 5126,
      "count": 1,
      "max": [
        0.0
      ],
      "min": [
        0.0
      ],
      "type": "SCALAR"
    },
    {
      "bufferView": 53,
      "componentType": 5126,
      "count": 1,
      "type": "VEC4"
    },
    {
      "bufferView": 54,
      "componentType": 5126,
      "count": 1,
      "max": [
        0.0
      ],
      "min": [
        0.0
      ],
      "type": "SCALAR"
    },
    {
      "bufferView": 55,
      "componentType": 5126,
      "count": 1,
      "type": "VEC4"
    },
    {
      "bufferView": 56,
      "componentType": 5126,
      "count": 1,
      "max": [
        0.0
      ],
      "min": [
        0.0
      ],
      "type": "SCALAR"
    },
    {
      "bufferView": 57,
      "componentType": 5126,
      "count": 1,
      "type": "VEC4"
    },
    {
      "bufferView": 58,
      "componentType": 5126,
      "count": 1,
      "max": [
        0.0
      ],
      "min": [
        0.0
      ],
      "type": "SCALAR"
    },
    {
      "bufferView": 59,
      "componentType": 5126,
      "count": 1,
      "type": "VEC4"
    },
    {
      "bufferView": 60,
      "componentType": 5126,
      "count": 1,
      "max": [
        0.0
      ],
      "min": [
        0.0
      ],
      "type": "SCALAR"
    },
    {
      "bufferView": 61,
      "componentType": 5126,
      "count": 1,
      "type": "VEC4"
    },
    {
      "bufferView": 62,
      "componentType": 5126,
      "count": 1,
      "max": [
        0.0
      ],
      "min": [
        0.0
      ],
      "type": "SCALAR"
    },
    {
      "bufferView": 63,
      "componentType": 5126,
      "count": 1,
      "type": "VEC4"
    },
    {
      "bufferView": 64,
      "componentType": 5126,
      "count": 27,
      "max": [
        1.36666667461395
      ],
      "min": [
        0.0
      ],
      "type": "SCALAR"
    },
    {
      "bufferView": 65,
      "componentType": 5126,
      "count": 27,
      "type": "VEC4"
    },
    {
      "bufferView": 66,
      "componentType": 5126,
      "count": 33,
      "max": [
        1.36666667461395
      ],
      "min": [
        0.0
      ],
      "type": "SCALAR"
    },
    {
      "bufferView": 67,
      "componentType": 5126,
      "count": 33,
      "type": "VEC4"
    },
    {
      "bufferView": 68,
      "componentType": 5126,
      "count": 18,
      "max": [
        1.36666667461395
      ],
      "min": [
        0.0
      ],
      "type": "SCALAR"
    },
    {
      "bufferView": 69,
      "componentType": 5126,
      "count": 18,
      "type": "VEC4"
    },
    {
      "bufferView": 70,
      "componentType": 5126,
      "count": 31,
      "max": [
        1.36666667461395
      ],
      "min": [
        0.0
      ],
      "type": "SCALAR"
    },
    {
      "bufferView": 71,
      "componentType": 5126,
      "count": 31,
      "type": "VEC4"
    },
    {
      "bufferView": 72,
      "componentType": 5126,
      "count": 34,
      "max": [
        1.36666667461395
      ],
      "min": [
        0.0
      ],
      "type": "SCALAR"
    },
    {
      "bufferView": 73,
      "componentType": 5126,
      "count": 34,
      "type": "VEC4"
    },
    {
      "bufferView": 74,
      "componentType": 5126,
      "count": 30,
      "max": [
        1.36666667461395
      ],
      "min": [
        0.0
      ],
      "type": "SCALAR"
    },
    {
      "bufferView": 75,
      "componentType": 5126,
      "count": 30,
      "type": "VEC4"
    }
  ],
  "animations": [
    {
      "channels": [
        {
          "sampler": 0,
          "target": {
            "node": 0,
            "path": "rotation"
          }
        },
        {
          "sampler": 1,
          "target": {
            "node": 1,
            "path": "rotation"
          }
        },
        {
          "sampler": 2,
          "target": {
            "node": 2,
            "path": "rotation"
          }
        },
        {
          "sampler": 3,
          "target": {
            "node": 3,
            "path": "rotation"
          }
        },
        {
          "sampler": 4,
          "target": {
            "node": 4,
            "path": "rotation"
          }
        },
        {
          "sampler": 5,
          "target": {
            "node": 5,
            "path": "rotation"
          }
        },
        {
          "sampler": 6,
          "target": {
            "node": 6,
            "path": "rotation"
          }
        },
        {
          "sampler": 7,
          "target": {
            "node": 7,
            "path": "rotation"
          }
        },
        {
          "sampler": 8,
          "target": {
            "node": 8,
            "path": "rotation"
          }
        },
        {
          "sampler": 9,
          "target": {
            "node": 9,
            "path": "rotation"
          }
        },
        {
          "sampler": 10,
          "target": {
            "node": 10,
            "path": "rotation"
          }
        },
        {
          "sampler": 11,
          "target": {
            "node": 11,
            "path": "rotation"
          }
        },
        {
          "sampler": 12,
          "target": {
            "node": 12,
            "path": "rotation"
          }
        },
        {
          "sampler": 13,
          "target": {
            "node": 13,
            "path": "rotation"
          }
        },
        {
          "sampler": 14,
          "target": {
            "node": 14,
            "path": "rotation"
          }
        },
        {
          "sampler": 15,
          "target": {
            "node": 15,
            "path": "rotation"
          }
        },
        {
          "sampler": 16,
          "target": {
            "node": 16,
            "path": "rotation"
          }
        },
        {
          "sampler": 17,
          "target": {
            "node": 17,
            "path": "rotation"
          }
        },
        {
          "sampler": 18,
          "target": {
            "node": 18,
            "path": "rotation"
          }
        },
        {
          "sampler": 19,
          "target": {
            "node": 19,
            "path": "rotation"
          }
        },
        {
          "sampler": 20,
          "target": {
            "node": 20,
            "path": "rotation"
          }
        },
        {
          "sampler": 21,
          "target": {
            "node": 21,
            "path": "rotation"
          }
        },
        {
          "sampler": 22,
          "target": {
            "node": 22,
            "path": "rotation"
          }
        },
        {
          "sampler": 23,
          "target": {
            "node": 23,
            "path": "rotation"
          }
        },
        {
          "sampler": 24,
          "target": {
            "node": 24,
            "path": "rotation"
          }
        },
        {
          "sampler": 25,
          "target": {
            "node": 25,
            "path": "rotation"
          }
        },
        {
          "sampler": 26,
          "target": {
            "node": 26,
            "path": "rotation"
          }
        },
        {
          "sampler": 27,
          "target": {
            "node": 27,
            "path": "rotation"
          }
        },
        {
          "sampler": 28,
          "target": {
            "node": 28,
            "path": "rotation"
          }
        },
        {
          "sampler": 29,
          "target": {
            "node": 29,
            "path": "rotation"
          }
        },
        {
          "sampler": 30,
          "target": {
            "node": 30,
            "path": "rotation"
          }
        },
        {
          "sampler": 31,
          "target": {
            "node": 31,
            "path": "rotation"
          }
        },
        {
          "sampler": 32,
          "target": {
            "node": 32,
            "path": "rotation"
          }
        },
        {
          "sampler": 33,
          "target": {
            "node": 33,
            "path": "rotation"
          }
        },
        {
          "sampler": 34,
          "target": {
            "node": 34,
            "path": "rotation"
          }
        },
        {
          "sampler": 35,
          "target": {
            "node": 35,
            "path": "rotation"
          }
        },
        {
          "sampler": 36,
          "target": {
            "node": 36,
            "path": "rotation"
          }
        },
        {
          "sampler": 37,
          "target": {
            "node": 37,
            "path": "rotation"
          }
        }
      ],
      "name": "pistol_idle_swat",
      "samplers": [
        {
          "input": 0,
          "interpolation": "LINEAR",
          "output": 1
        },
        {
          "input": 2,
          "interpolation": "LINEAR",
          "output": 3
        },
        {
          "input": 4,
          "interpolation": "LINEAR",
          "output": 5
        },
        {
          "input": 6,
          "interpolation": "LINEAR",
          "output": 7
        },
        {
          "input": 8,
          "interpolation": "LINEAR",
          "output": 9
        },
        {
          "input": 10,
          "interpolation": "LINEAR",
          "output": 11
        },
        {
          "input": 12,
          "interpolation": "LINEAR",
          "output": 13
        },
        {
          "input": 14,
          "interpolation": "LINEAR",
          "output": 15
        },
        {
          "input": 16,
          "interpolation": "LINEAR",
          "output": 17
        },
        {
          "input": 18,
          "interpolation": "LINEAR",
          "output": 19
        },
        {
          "input": 20,
          "interpolation": "LINEAR",
          "output": 21
        },
        {
          "input": 22,
          "interpolation": "LINEAR",
          "output": 23
        },
        {
          "input": 24,
          "interpolation": "LINEAR",
          "output": 25
        },
        {
          "input": 26,
          "interpolation": "LINEAR",
          "output": 27
        },
        {
          "input": 28,
          "interpolation": "LINEAR",
          "output": 29
        },
        {
          "input": 30,
          "interpolation": "LINEAR",
          "output": 31
        },
        {
          "input": 32,
          "interpolation": "LINEAR",
          "output": 33
        },
        {
          "input": 34,
          "interpolation": "LINEAR",
          "output": 35
        },
        {
          "input": 36,
          "interpolation": "LINEAR",
          "output": 37
        },
        {
          "input": 38,
          "interpolation": "LINEAR",
          "output": 39
        },
        {
          "input": 40,
          "interpolation": "LINEAR",
          "output": 41
        },
        {
          "input": 42,
          "interpolation": "LINEAR",
          "output": 43
        },
        {
          "input": 44,
          "interpolation": "LINEAR",
          "output": 45
        },
        {
          "input": 46,
          "interpolation": "LINEAR",
          "output": 47
        },
        {
          "input": 48,
          "interpolation": "LINEAR",
          "output": 49
        },
        {
          "input": 50,
          "interpolation": "LINEAR",
          "output": 51
        },
        {
          "input": 52,
          "interpolation": "LINEAR",
          "output": 53
        },
        {
          "input": 54,
          "interpolation": "LINEAR",
          "output": 55
        },
        {
          "input": 56,
          "interpolation": "LINEAR",
          "output": 57
        },
        {
          "input": 58,
          "interpolation": "LINEAR",
          "output": 59
        },
        {
          "input": 60,
          "interpolation": "LINEAR",
          "output": 61
        },
        {
          "input": 62,
          "interpolation": "LINEAR",
          "output": 63
        },
        {
          "input": 64,
          "interpolation": "LINEAR",
          "output": 65
        },
        {
          "input": 66,
          "interpolation": "LINEAR",
          "output": 67
        },
        {
          "input": 68,
          "interpolation": "LINEAR",
          "output": 69
        },
        {
          "input": 70,
          "interpolation": "LINEAR",
          "output": 71
        },
        {
          "input": 72,
          "interpolation": "LINEAR",
          "output": 73
        },
        {
          "input": 74,
          "interpolation": "LINEAR",
          "output": 75
        }
      ]
    }
  ],
  "asset": {
    "generator": "rushfire grenade3p_kit",
    "version": "2.0"
  },
  "bufferViews": [
    {
      "buffer": 0,
      "byteLength": 44,
      "byteOffset": 0
    },
    {
      "buffer": 0,
      "byteLength": 176,
      "byteOffset": 44
    },
    {
      "buffer": 0,
      "byteLength": 36,
      "byteOffset": 220
    },
    {
      "buffer": 0,
      "byteLength": 144,
      "byteOffset": 256
    },
    {
      "buffer": 0,
      "byteLength": 20,
      "byteOffset": 400
    },
    {
      "buffer": 0,
      "byteLength": 80,
      "byteOffset": 420
    },
    {
      "buffer": 0,
      "byteLength": 20,
      "byteOffset": 500
    },
    {
      "buffer": 0,
      "byteLength": 80,
      "byteOffset": 520
    },
    {
      "buffer": 0,
      "byteLength": 36,
      "byteOffset": 600
    },
    {
      "buffer": 0,
      "byteLength": 144,
      "byteOffset": 636
    },
    {
      "buffer": 0,
      "byteLength": 80,
      "byteOffset": 780
    },
    {
      "buffer": 0,
      "byteLength": 320,
      "byteOffset": 860
    },
    {
      "buffer": 0,
      "byteLength": 92,
      "byteOffset": 1180
    },
    {
      "buffer": 0,
      "byteLength": 368,
      "byteOffset": 1272
    },
    {
      "buffer": 0,
      "byteLength": 108,
      "byteOffset": 1640
    },
    {
      "buffer": 0,
      "byteLength": 432,
      "byteOffset": 1748
    },
    {
      "buffer": 0,
      "byteLength": 52,
      "byteOffset": 2180
    },
    {
      "buffer": 0,
      "byteLength": 208,
      "byteOffset": 2232
    },
    {
      "buffer": 0,
      "byteLength": 152,
      "byteOffset": 2440
    },
    {
      "buffer": 0,
      "byteLength": 608,
      "byteOffset": 2592
    },
    {
      "buffer": 0,
      "byteLength": 4,
      "byteOffset": 3200
    },
    {
      "buffer": 0,
      "byteLength": 16,
      "byteOffset": 3204
    },
    {
      "buffer": 0,
      "byteLength": 4,
      "byteOffset": 3220
    },
    {
      "buffer": 0,
      "byteLength": 16,
      "byteOffset": 3224
    },
    {
      "buffer": 0,
      "byteLength": 4,
      "byteOffset": 3240
    },
    {
      "buffer": 0,
      "byteLength": 16,
      "byteOffset": 3244
    },
    {
      "buffer": 0,
      "byteLength": 4,
      "byteOffset": 3260
    },
    {
      "buffer": 0,
      "byteLength": 16,
      "byteOffset": 3264
    },
    {
      "buffer": 0,
      "byteLength": 4,
      "byteOffset": 3280
    },
    {
      "buffer": 0,
      "byteLength": 16,
      "byteOffset": 3284
    },
    {
      "buffer": 0,
      "byteLength": 4,
      "byteOffset": 3300
    },
    {
      "buffer": 0,
      "byteLength": 16,
      "byteOffset": 3304
    },
    {
      "buffer": 0,
      "byteLength": 4,
      "byteOffset": 3320
    },
    {
      "buffer": 0,
      "byteLength": 16,
      "byteOffset": 3324
    },
    {
      "buffer": 0,
      "byteLength": 4,
      "byteOffset": 3340
    },
    {
      "buffer": 0,
      "byteLength": 16,
      "byteOffset": 3344
    },
    {
      "buffer": 0,
      "byteLength": 4,
      "byteOffset": 3360
    },
    {
      "buffer": 0,
      "byteLength": 16,
      "byteOffset": 3364
    },
    {
      "buffer": 0,
      "byteLength": 68,
      "byteOffset": 3380
    },
    {
      "buffer": 0,
      "byteLength": 272,
      "byteOffset": 3448
    },
    {
      "buffer": 0,
      "byteLength": 136,
      "byteOffset": 3720
    },
    {
      "buffer": 0,
      "byteLength": 544,
      "byteOffset": 3856
    },
    {
      "buffer": 0,
      "byteLength": 104,
      "byteOffset": 4400
    },
    {
      "buffer": 0,
      "byteLength": 416,
      "byteOffset": 4504
    },
    {
      "buffer": 0,
      "byteLength": 140,
      "byteOffset": 4920
    },
    {
      "buffer": 0,
      "byteLength": 560,
      "byteOffset": 5060
    },
    {
      "buffer": 0,
      "byteLength": 4,
      "byteOffset": 5620
    },
    {
      "buffer": 0,
      "byteLength": 16,
      "byteOffset": 5624
    },
    {
      "buffer": 0,
      "byteLength": 4,
      "byteOffset": 5640
    },
    {
      "buffer": 0,
      "byteLength": 16,
      "byteOffset": 5644
    },
    {
      "buffer": 0,
      "byteLength": 4,
      "byteOffset": 5660
    },
    {
      "buffer": 0,
      "byteLength": 16,
      "byteOffset": 5664
    },
    {
      "buffer": 0,
      "byteLength": 4,
      "byteOffset": 5680
    },
    {
      "buffer": 0,
      "byteLength": 16,
      "byteOffset": 5684
    },
    {
      "buffer": 0,
      "byteLength": 4,
      "byteOffset": 5700
    },
    {
      "buffer": 0,
      "byteLength": 16,
      "byteOffset": 5704
    },
    {
      "buffer": 0,
      "byteLength": 4,
      "byteOffset": 5720
    },
    {
      "buffer": 0,
      "byteLength": 16,
      "byteOffset": 5724
    },
    {
      "buffer": 0,
      "byteLength": 4,
      "byteOffset": 5740
    },
    {
      "buffer": 0,
      "byteLength": 16,
      "byteOffset": 5744
    },
    {
      "buffer": 0,
      "byteLength": 4,
      "byteOffset": 5760
    },
    {
      "buffer": 0,
      "byteLength": 16,
      "byteOffset": 5764
    },
    {
      "buffer": 0,
      "byteLength": 4,
      "byteOffset": 5780
    },
    {
      "buffer": 0,
      "byteLength": 16,
      "byteOffset": 5784
    },
    {
      "buffer": 0,
      "byteLength": 108,
      "byteOffset": 5800
    },
    {
      "buffer": 0,
      "byteLength": 432,
      "byteOffset": 5908
    },
    {
      "buffer": 0,
      "byteLength": 132,
      "byteOffset": 6340
    },
    {
      "buffer": 0,
      "byteLength": 528,
      "byteOffset": 6472
    },
    {
      "buffer": 0,
      "byteLength": 72,
      "byteOffset": 7000
    },
    {
      "buffer": 0,
      "byteLength": 288,
      "byteOffset": 7072
    },
    {
      "buffer": 0,
      "byteLength": 124,
      "byteOffset": 7360
    },
    {
      "buffer": 0,
      "byteLength": 496,
      "byteOffset": 7484
    },
    {
      "buffer": 0,
      "byteLength": 136,
      "byteOffset": 7980
    },
    {
      "buffer": 0,
      "byteLength": 544,
      "byteOffset": 8116
    },
    {
      "buffer": 0,
      "byteLength": 120,
      "byteOffset": 8660
    },
    {
      "buffer": 0,
      "byteLength": 480,
      "byteOffset": 8780
    }
  ],
  "buffers": [
    {
      "byteLength": 9260,
      "uri": "data:application/octet-stream;base64,"
    }
  ],
  "nodes": [
    {
      "name": "mixamorig_Hips"
    },
    {
      "name": "mixamorig_Spine"
    },
    {
      "name": "mixamorig_Spine1"
    },
    {
      "name": "mixamorig_Spine2"
    },
    {
      "name": "mixamorig_Neck"
    },
    {
      "name": "mixamorig_Head"
    },
    {
      "name": "mixamorig_LeftShoulder"
    },
    {
      "name": "mixamorig_LeftArm"
    },
    {
      "name": "mixamorig_LeftForeArm"
    },
    {
      "name": "mixamorig_LeftHand"
    },
    {
      "name": "mixamorig_LeftHandThumb1"
    },
    {
      "name": "mixamorig_LeftHandThumb2"
    },
    {
      "name": "mixamorig_LeftHandThumb3"
    },
    {
      "name": "mixamorig_LeftHandIndex1"
    },
    {
      "name": "mixamorig_LeftHandIndex2"
    },
    {
      "name": "mixamorig_LeftHandIndex3"
    },
    {
      "name": "mixamorig_LeftHandMiddle1"
    },
    {
      "name": "mixamorig_LeftHandMiddle2"
    },
    {
      "name": "mixamorig_LeftHandMiddle3"
    },
    {
      "name": "mixamorig_RightShoulder"
    },
    {
      "name": "mixamorig_RightArm"
    },
    {
      "name": "mixamorig_RightForeArm"
    },
    {
      "name": "mixamorig_RightHand"
    },
    {
      "name": "mixamorig_RightHandThumb1"
    },
    {
      "name": "mixamorig_RightHandThumb2"
    },
    {
      "name": "mixamorig_RightHandThumb3"
    },
    {
      "name": "mixamorig_RightHandIndex1"
    },
    {
      "name": "mixamorig_RightHandIndex2"
    },
    {
      "name": "mixamorig_RightHandIndex3"
    },
    {
      "name": "mixamorig_RightHandMiddle1"
    },
    {
      "name": "mixamorig_RightHandMiddle2"
    },
    {
      "name": "mixamorig_RightHandMiddle3"
    },
    {
      "name": "mixamorig_LeftUpLeg"
    },
    {
      "name": "mixamorig_LeftLeg"
    },
    {
      "name": "mixamorig_LeftFoot"
    },
    {
      "name": "mixamorig_RightUpLeg"
    },
    {
      "name": "mixamorig_RightLeg"
    },
    {
      "name": "mixamorig_RightFoot"
    }
  ],
  "scene": 0,
  "scenes": [
    {
      "nodes": [
        0,
        1,
        2,
        3,
        4,
        5,
        6,
        7,
        8,
        9,
        10,
        11,
        12,
        13,
        14,
        15,
        16,
        17,
        18,
        19,
        20,
        21,
        22,
        23,
        24,
        25,
        26,
        27,
        28,
        29,
        30,
        31,
        32,
        33,
        34,
        35,
        36,
        37
      ]
    }
  ]
}