{"asset":{"version":"2.0","generator":"gaobao_3p_static"},"scene":0,"scenes":[{"nodes":[0]}],"nodes":[{"name":"gaobao_world_static","mesh":0}],"meshes":[{"name":"gaobao_grenade","primitives":[{"attributes":{"POSITION":0,"NORMAL":1,"TEXCOORD_0":2},"indices":3,"material":14,"mode":4}]}],"materials":[{"name":"QQ525199538_(alias_to_PV-TH)","pbrMetallicRoughness":{"baseColorTexture":{"index":14},"metallicFactor":0.0,"roughnessFactor":0.75},"doubleSided":false},{"name":"Glove_CK_Man_1_(alias_to_PV-TH)","pbrMetallicRoughness":{"baseColorTexture":{"index":14},"metallicFactor":0.0,"roughnessFactor":0.75},"doubleSided":false},{"name":"Hand_CK_Man_1_(alias_to_PV-TH)","pbrMetallicRoughness":{"baseColorTexture":{"index":14},"metallicFactor":0.0,"roughnessFactor":0.75},"doubleSided":false},{"name":"Glove_CK_Man_2_(alias_to_PV-TH)","pbrMetallicRoughness":{"baseColorTexture":{"index":14},"metallicFactor":0.0,"roughnessFactor":0.75},"doubleSided":false},{"name":"Hand_CK_Man_2_(alias_to_PV-TH)","pbrMetallicRoughness":{"baseColorTexture":{"index":14},"metallicFactor":0.0,"roughnessFactor":0.75},"doubleSided":false},{"name":"Glove_CK_Man_3_(alias_to_PV-TH)","pbrMetallicRoughness":{"baseColorTexture":{"index":14},"metallicFactor":0.0,"roughnessFactor":0.75},"doubleSided":false},{"name":"Hand_CK_Man_3_(alias_to_PV-TH)","pbrMetallicRoughness":{"baseColorTexture":{"index":14},"metallicFactor":0.0,"roughnessFactor":0.75},"doubleSided":false},{"name":"Hand_CK_Man_6_(alias_to_PV-TH)","pbrMetallicRoughness":{"baseColorTexture":{"index":14},"metallicFactor":0.0,"roughnessFactor":0.75},"doubleSided":false},{"name":"Glove_CK_Man_6_(alias_to_PV-TH)","pbrMetallicRoughness":{"baseColorTexture":{"index":14},"metallicFactor":0.0,"roughnessFactor":0.75},"doubleSided":false},{"name":"Hand_CK_Man_7_(alias_to_PV-TH)","pbrMetallicRoughness":{"baseColorTexture":{"index":14},"metallicFactor":0.0,"roughnessFactor":0.75},"doubleSided":false},{"name":"Glove_CK_Man_7_(alias_to_PV-TH)","pbrMetallicRoughness":{"baseColorTexture":{"index":14},"metallicFactor":0.0,"roughnessFactor":0.75},"doubleSided":false},{"name":"Hand_CK_Man_8_(alias_to_PV-TH)","pbrMetallicRoughness":{"baseColorTexture":{"index":14},"metallicFactor":0.0,"roughnessFactor":0.75},"doubleSided":false},{"name":"Glove_CK_Man_8_(alias_to_PV-TH)","pbrMetallicRoughness":{"baseColorTexture":{"index":14},"metallicFactor":0.0,"roughnessFactor":0.75},"doubleSided":false},{"name":"flashbang_(alias_to_PV-TH)","pbrMetallicRoughness":{"baseColorTexture":{"index":14},"metallicFactor":0.0,"roughnessFactor":0.75},"doubleSided":false},{"name":"PV-TH_NEGRANADE","pbrMetallicRoughness":{"baseColorTexture":{"index":14},"metallicFactor":0.0,"roughnessFactor":0.75},"doubleSided":false}],"textures":[{"sampler":0,"source":0},{"sampler":0,"source":1},{"sampler":0,"source":2},{"sampler":0,"source":3},{"sampler":0,"source":4},{"sampler":0,"source":5},{"sampler":0,"source":6},{"sampler":0,"source":7},{"sampler":0,"source":8},{"sampler":0,"source":9},{"sampler":0,"source":10},{"sampler":0,"source":11},{"sampler":0,"source":12},{"sampler":0,"source":13},{"sampler":0,"source":14}],"images":[{"uri":"textures/QQ525199538.png"},{"uri":"textures/Glove_CK_Man_1.png"},{"uri":"textures/Hand_CK_Man_1.png"},{"uri":"textures/Glove_CK_Man_2.png"},{"uri":"textures/Hand_CK_Man_2.png"},{"uri":"textures/Glove_CK_Man_3.png"},{"uri":"textures/Hand_CK_Man_3.png"},{"uri":"textures/Hand_CK_Man_6.png"},{"uri":"textures/Glove_CK_Man_6.png"},{"uri":"textures/Hand_CK_Man_7.png"},{"uri":"textures/Glove_CK_Man_7.png"},{"uri":"textures/Hand_CK_Man_8.png"},{"uri":"textures/Glove_CK_Man_8.png"},{"uri":"textures/flashbang.png"},{"uri":"textures/PV-TH_NEGRANADE.png"}],"samplers":[{"magFilter":9729,"minFilter":9987,"wrapS":10497,"wrapT":10497}],"accessors":[{"bufferView":0,"componentType":5126,"count":859,"type":"VEC3","min":[-0.1396914185548411,-0.20209714526674943,-0.41427732489859526],"max":[0.07593841867202655,0.09008333673932356,0.2997088301345163]},{"bufferView":1,"componentType":5126,"count":859,"type":"VEC3"},{"bufferView":2,"componentType":5126,"count":859,"type":"VEC2"},{"bufferView":3,"componentType":5125,"count":2943,"type":"SCALAR"}],"bufferViews":[{"buffer":0,"byteOffset":0,"byteLength":10308,"target":34962},{"buffer":0,"byteOffset":10308,"byteLength":10308,"target":34962},{"buffer":0,"byteOffset":20616,"byteLength":6872,"target":34962},{"buffer":0,"byteOffset":27488,"byteLength":11772,"target":34963}],"buffers":[{"uri":"gaobao_world_static.bin","byteLength":39260}]}