{"asset":{"version":"2.0","generator":"mdl2gltf (GoldSrc->glTF)"},"scene":0,"scenes":[{"nodes":[40,41,42,43,44,45]}],"nodes":[{"name":"Bone02","translation":[0.0,0.45513999462127686,-7.583417892456055],"rotation":[-0.4252200698212662,-0.5649670268197173,0.4252200698212662,0.5649672937868914]},{"name":"joint1","translation":[0.0,-0.031032999977469444,9.21135139465332],"rotation":[0.7071066702003034,0.0,0.0,0.7071068921727742],"children":[2,20]},{"name":"joint2","translation":[17.739990234375,-7.492308139801025,14.465385437011719],"rotation":[0.26309931414748966,-0.22085774847506937,-0.9370996046909145,-0.06200755374771078],"children":[3]},{"name":"joint3","translation":[0.0,0.0,8.917320251464844],"rotation":[0.0,0.0,0.0,1.0],"children":[4,5]},{"name":"joint4","translation":[-0.6390330195426941,-0.6540300250053406,2.203155994415283],"rotation":[0.0,0.0,0.0,1.0],"children":[8,11,14,17]},{"name":"joint5","translation":[1.593932032585144,-2.7630040645599365,2.2915070056915283],"rotation":[0.18113917248933767,0.3409712033616747,-0.06713315010255971,0.9200110753818547],"children":[6]},{"name":"joint6","translation":[0.0,0.0,1.5080080032348633],"rotation":[0.056799373212843604,-0.11994377692012738,-0.9911307069237603,-0.006873381523680095],"children":[7]},{"name":"joint7","translation":[0.0,0.0,1.2255100011825562],"rotation":[0.0,0.0,0.0,1.0]},{"name":"joint8","translation":[-0.32254400849342346,-2.6772398948669434,2.736237049102783],"rotation":[0.1416826910944229,0.48759268911362813,-0.08054264486274376,0.8577250532225912],"children":[9]},{"name":"joint9","translation":[0.0,0.0,2.4191629886627197],"rotation":[-0.16151446977255876,0.2673668050087435,0.04551049748163032,0.9488713623313121],"children":[10]},{"name":"joint10","translation":[0.0,0.0,1.5770870447158813],"rotation":[0.0,0.0,0.0,1.0]},{"name":"joint11","translation":[0.5318499803543091,-1.6827590465545654,3.130073070526123],"rotation":[0.05617013278275274,0.4869876912681989,-0.031404212837890626,0.8710348329156933],"children":[12]},{"name":"joint12","translation":[0.0,0.0,2.2754600048065186],"rotation":[-0.11170325443959751,0.2980613646656996,0.03514529557978122,0.9473365896236845],"children":[13]},{"name":"joint13","translation":[0.0,0.0,1.66976797580719],"rotation":[0.0,0.0,0.0,1.0]},{"name":"joint14","translation":[1.1780580282211304,-0.09780699759721756,3.3056740760803223],"rotation":[0.04463027758493327,0.5633895408618689,-0.030499257522070684,0.8244211052979823],"children":[15]},{"name":"joint15","translation":[0.0,0.0,1.8095699548721313],"rotation":[0.1304709707935425,0.11458313459561809,-0.015182187927753199,0.9846915924370225],"children":[16]},{"name":"joint16","translation":[0.0,0.0,1.5140689611434937],"rotation":[0.0,0.0,0.0,1.0]},{"name":"joint17","translation":[1.3267689943313599,1.2395739555358887,2.580687999725342],"rotation":[0.11768488663706221,0.5153961534048105,-0.07171255141140996,0.8457980742959945],"children":[18]},{"name":"joint18","translation":[0.0,0.0,1.759574055671692],"rotation":[-0.010791349035816923,0.2159947193370457,0.0023873789471746394,0.9763319765460213],"children":[19]},{"name":"joint19","translation":[0.0,0.0,1.4131580591201782],"rotation":[0.0,0.0,0.0,1.0]},{"name":"joint20","translation":[-17.92235565185547,-13.519844055175781,5.681816101074219],"rotation":[0.5774699620969178,0.37947622704401407,-0.635234296792256,0.3449690191351569],"children":[21]},{"name":"joint21","translation":[0.0,0.0,11.896628379821777],"rotation":[0.0,0.0,0.0,1.0],"children":[22,25]},{"name":"joint22","translation":[-1.8451379537582397,0.6125370264053345,2.30452299118042],"rotation":[0.045085256059717825,-0.1861946418376707,-0.9814406350889735,-0.008553059869048417],"children":[23]},{"name":"joint23","translation":[0.0,0.0,2.3439888954162598],"rotation":[-0.06409568427478304,0.03214462550761185,0.002065653342558237,0.9974237812407477],"children":[24]},{"name":"joint24","translation":[0.0,0.0,2.2307629585266113],"rotation":[0.0,0.0,0.0,1.0]},{"name":"joint25","translation":[0.05493700131773949,-1.2690249681472778,3.8015079498291016],"rotation":[0.0,0.0,0.0,1.0],"children":[26,29,32,35]},{"name":"joint26","translation":[1.6831330060958862,-0.6807820200920105,2.0206639766693115],"rotation":[-0.023155519531438167,0.05897785407931905,0.001368413691293731,0.9979897605122996],"children":[27]},{"name":"joint27","translation":[0.0,0.0,1.8177709579467773],"rotation":[0.035215799242589406,-0.02248862387439283,-0.9991263591192391,-0.0007923339414493062],"children":[28]},{"name":"joint28","translation":[0.0,0.0,1.324524998664856],"rotation":[0.0,0.0,0.0,1.0]},{"name":"joint29","translation":[0.7420750260353088,-1.073999047279358,2.8476181030273438],"rotation":[-0.028637404376673458,0.019901516029805694,0.0005702747364153124,0.9993915666629407],"children":[30]},{"name":"joint30","translation":[0.0,0.0,1.7807259559631348],"rotation":[0.0016384287798413462,-0.02657483464467835,-0.9996454830812959,-4.324238926787548e-05],"children":[31]},{"name":"joint31","translation":[0.0,0.0,2.191059112548828],"rotation":[0.0,0.0,0.0,1.0]},{"name":"joint32","translation":[-0.17949000000953674,-1.091007947921753,2.9545578956604004],"rotation":[0.003298480914163312,0.030183752414810076,-0.9995389192671347,9.99205123227063e-05],"children":[33]},{"name":"joint33","translation":[0.0,0.0,1.9991090297698975],"rotation":[0.021639814937447283,0.10675424903851147,-0.9940472053122626,0.0023242918442067653],"children":[34]},{"name":"joint34","translation":[0.0,0.0,2.246845006942749],"rotation":[0.0,0.0,0.0,1.0]},{"name":"joint35","translation":[-1.1784429550170898,-0.6993950009346008,3.035543918609619],"rotation":[0.008691135174463713,-0.007701130102610169,-0.9999325738898629,-6.662218574076997e-05],"children":[36]},{"name":"joint36","translation":[0.0,0.0,1.8525660037994385],"rotation":[0.04272011323647487,0.004232120265859176,-0.00018096348736855818,0.9990780992171404],"children":[37]},{"name":"joint37","translation":[0.0,0.0,1.9927350282669067],"rotation":[0.0,0.0,0.0,1.0]},{"name":"joint38","translation":[10.68248462677002,-23.081497192382812,10.56839370727539],"rotation":[-0.3940364812727722,-0.01850828709073952,0.04311451153840578,0.9178964177018797],"children":[39]},{"name":"joint39","translation":[0.0,0.0,2.3356869220733643],"rotation":[0.0,0.0,0.0,1.0]},{"name":"Armature","rotation":[-0.7071067811865476,0.0,0.0,0.7071067811865476],"scale":[0.0254,0.0254,0.0254],"children":[0,1,38]},{"name":"hands__mg36_draw","mesh":0,"skin":0},{"name":"hands__Hand_CK_Man_6","mesh":1,"skin":0},{"name":"hands__Hand_CK_Man_7","mesh":2,"skin":0},{"name":"hands__Hand_CK_Man_8","mesh":3,"skin":0},{"name":"weapon__model_0","mesh":4,"skin":0}],"meshes":[{"name":"hands__mg36_draw","primitives":[{"attributes":{"POSITION":0,"NORMAL":1,"TEXCOORD_0":2,"JOINTS_0":3,"WEIGHTS_0":4},"indices":5,"material":0,"mode":4}]},{"name":"hands__Hand_CK_Man_6","primitives":[{"attributes":{"POSITION":42,"NORMAL":43,"TEXCOORD_0":44,"JOINTS_0":45,"WEIGHTS_0":46},"indices":47,"material":1,"mode":4},{"attributes":{"POSITION":48,"NORMAL":49,"TEXCOORD_0":50,"JOINTS_0":51,"WEIGHTS_0":52},"indices":53,"material":2,"mode":4}]},{"name":"hands__Hand_CK_Man_7","primitives":[{"attributes":{"POSITION":54,"NORMAL":55,"TEXCOORD_0":56,"JOINTS_0":57,"WEIGHTS_0":58},"indices":59,"material":3,"mode":4},{"attributes":{"POSITION":60,"NORMAL":61,"TEXCOORD_0":62,"JOINTS_0":63,"WEIGHTS_0":64},"indices":65,"material":4,"mode":4}]},{"name":"hands__Hand_CK_Man_8","primitives":[{"attributes":{"POSITION":66,"NORMAL":67,"TEXCOORD_0":68,"JOINTS_0":69,"WEIGHTS_0":70},"indices":71,"material":5,"mode":4},{"attributes":{"POSITION":72,"NORMAL":73,"TEXCOORD_0":74,"JOINTS_0":75,"WEIGHTS_0":76},"indices":77,"material":6,"mode":4}]},{"name":"weapon__model_0","primitives":[{"attributes":{"POSITION":84,"NORMAL":85,"TEXCOORD_0":86,"JOINTS_0":87,"WEIGHTS_0":88},"indices":89,"material":7,"mode":4}]}],"skins":[{"name":"AK47_Skin","joints":[0,1,2,3,4,5,6,7,8,9,10,11,12,13,14,15,16,17,18,19,20,21,22,23,24,25,26,27,28,29,30,31,32,33,34,35,36,37,38,39],"inverseBindMatrices":90,"skeleton":40}],"materials":[{"name":"QQ525199538","pbrMetallicRoughness":{"baseColorTexture":{"index":0},"metallicFactor":0.0,"roughnessFactor":0.75},"doubleSided":false},{"name":"Hand_CK_Man_6","pbrMetallicRoughness":{"baseColorTexture":{"index":1},"metallicFactor":0.0,"roughnessFactor":0.75},"doubleSided":false},{"name":"Glove_CK_Man_6","pbrMetallicRoughness":{"baseColorTexture":{"index":2},"metallicFactor":0.0,"roughnessFactor":0.75},"doubleSided":false},{"name":"Hand_CK_Man_7","pbrMetallicRoughness":{"baseColorTexture":{"index":3},"metallicFactor":0.0,"roughnessFactor":0.75},"doubleSided":false},{"name":"Glove_CK_Man_7","pbrMetallicRoughness":{"baseColorTexture":{"index":4},"metallicFactor":0.0,"roughnessFactor":0.75},"doubleSided":false},{"name":"Hand_CK_Man_8","pbrMetallicRoughness":{"baseColorTexture":{"index":5},"metallicFactor":0.0,"roughnessFactor":0.75},"doubleSided":false},{"name":"Glove_CK_Man_8","pbrMetallicRoughness":{"baseColorTexture":{"index":6},"metallicFactor":0.0,"roughnessFactor":0.75},"doubleSided":false},{"name":"PV-TH_NEGRANADE","pbrMetallicRoughness":{"baseColorTexture":{"index":7},"metallicFactor":0.0,"roughnessFactor":0.75},"doubleSided":false}],"textures":[{"sampler":0,"source":0},{"sampler":0,"source":1},{"sampler":0,"source":2},{"sampler":0,"source":3},{"sampler":0,"source":4},{"sampler":0,"source":5},{"sampler":0,"source":6},{"sampler":0,"source":7}],"images":[{"uri":"textures/QQ525199538.png"},{"uri":"textures/Hand_CK_Man_6.png"},{"uri":"textures/Glove_CK_Man_6.png"},{"uri":"textures/Hand_CK_Man_7.png"},{"uri":"textures/Glove_CK_Man_7.png"},{"uri":"textures/Hand_CK_Man_8.png"},{"uri":"textures/Glove_CK_Man_8.png"},{"uri":"textures/PV-TH_NEGRANADE.png"}],"samplers":[{"magFilter":9729,"minFilter":9987,"wrapS":10497,"wrapT":10497}],"accessors":[{"bufferView":0,"componentType":5126,"count":2,"type":"VEC3","min":[3.947096786044745e-07,1.342511631767175,-6.942815424321272],"max":[3.947096786044745e-07,1.342511631767175,-6.942815424321272]},{"bufferView":1,"componentType":5126,"count":2,"type":"VEC3"},{"bufferView":2,"componentType":5126,"count":2,"type":"VEC2"},{"bufferView":3,"componentType":5123,"count":2,"type":"VEC4"},{"bufferView":4,"componentType":5126,"count":2,"type":"VEC4"},{"bufferView":5,"componentType":5125,"count":3,"type":"SCALAR"},{"bufferView":6,"componentType":5126,"count":805,"type":"VEC3","min":[-30.92080187368569,-25.41666568197728,-24.455496356730777],"max":[15.661645868434485,-4.575136609452132,12.856476193149064]},{"bufferView":7,"componentType":5126,"count":805,"type":"VEC3"},{"bufferView":8,"componentType":5126,"count":805,"type":"VEC2"},{"bufferView":9,"componentType":5123,"count":805,"type":"VEC4"},{"bufferView":10,"componentType":5126,"count":805,"type":"VEC4"},{"bufferView":11,"componentType":5125,"count":3180,"type":"SCALAR"},{"bufferView":12,"componentType":5126,"count":170,"type":"VEC3","min":[-24.742420920256773,-22.08363382440627,-14.945138288632977],"max":[20.5284811167621,-3.669156327215212,9.565169042315194]},{"bufferView":13,"componentType":5126,"count":170,"type":"VEC3"},{"bufferView":14,"componentType":5126,"count":170,"type":"VEC2"},{"bufferView":15,"componentType":5123,"count":170,"type":"VEC4"},{"bufferView":16,"componentType":5126,"count":170,"type":"VEC4"},{"bufferView":17,"componentType":5125,"count":822,"type":"SCALAR"},{"bufferView":18,"componentType":5126,"count":805,"type":"VEC3","min":[-30.92080187368569,-25.41666568197728,-24.455496356730777],"max":[15.661645868434485,-4.575136609452132,12.856476193149064]},{"bufferView":19,"componentType":5126,"count":805,"type":"VEC3"},{"bufferView":20,"componentType":5126,"count":805,"type":"VEC2"},{"bufferView":21,"componentType":5123,"count":805,"type":"VEC4"},{"bufferView":22,"componentType":5126,"count":805,"type":"VEC4"},{"bufferView":23,"componentType":5125,"count":3180,"type":"SCALAR"},{"bufferView":24,"componentType":5126,"count":170,"type":"VEC3","min":[-24.742420920256773,-22.08363382440627,-14.945138288632977],"max":[20.5284811167621,-3.669156327215212,9.565169042315194]},{"bufferView":25,"componentType":5126,"count":170,"type":"VEC3"},{"bufferView":26,"componentType":5126,"count":170,"type":"VEC2"},{"bufferView":27,"componentType":5123,"count":170,"type":"VEC4"},{"bufferView":28,"componentType":5126,"count":170,"type":"VEC4"},{"bufferView":29,"componentType":5125,"count":822,"type":"SCALAR"},{"bufferView":30,"componentType":5126,"count":805,"type":"VEC3","min":[-30.92080187368569,-25.41666568197728,-24.455496356730777],"max":[15.661645868434485,-4.575136609452132,12.856476193149064]},{"bufferView":31,"componentType":5126,"count":805,"type":"VEC3"},{"bufferView":32,"componentType":5126,"count":805,"type":"VEC2"},{"bufferView":33,"componentType":5123,"count":805,"type":"VEC4"},{"bufferView":34,"componentType":5126,"count":805,"type":"VEC4"},{"bufferView":35,"componentType":5125,"count":3180,"type":"SCALAR"},{"bufferView":36,"componentType":5126,"count":170,"type":"VEC3","min":[-24.742420920256773,-22.08363382440627,-14.945138288632977],"max":[20.5284811167621,-3.669156327215212,9.565169042315194]},{"bufferView":37,"componentType":5126,"count":170,"type":"VEC3"},{"bufferView":38,"componentType":5126,"count":170,"type":"VEC2"},{"bufferView":39,"componentType":5123,"count":170,"type":"VEC4"},{"bufferView":40,"componentType":5126,"count":170,"type":"VEC4"},{"bufferView":41,"componentType":5125,"count":822,"type":"SCALAR"},{"bufferView":42,"componentType":5126,"count":242,"type":"VEC3","min":[-26.284503841633228,-22.77439636950549,-16.071487782126088],"max":[21.160295549883426,-2.9632912782660887,8.631953678917206]},{"bufferView":43,"componentType":5126,"count":242,"type":"VEC3"},{"bufferView":44,"componentType":5126,"count":242,"type":"VEC2"},{"bufferView":45,"componentType":5123,"count":242,"type":"VEC4"},{"bufferView":46,"componentType":5126,"count":242,"type":"VEC4"},{"bufferView":47,"componentType":5125,"count":1230,"type":"SCALAR"},{"bufferView":48,"componentType":5126,"count":805,"type":"VEC3","min":[-30.927506827691438,-25.406241929386425,-24.477676947630908],"max":[15.503996275744054,-4.555225963851961,12.855688805562632]},{"bufferView":49,"componentType":5126,"count":805,"type":"VEC3"},{"bufferView":50,"componentType":5126,"count":805,"type":"VEC2"},{"bufferView":51,"componentType":5123,"count":805,"type":"VEC4"},{"bufferView":52,"componentType":5126,"count":805,"type":"VEC4"},{"bufferView":53,"componentType":5125,"count":3180,"type":"SCALAR"},{"bufferView":54,"componentType":5126,"count":242,"type":"VEC3","min":[-26.284503841633228,-22.77439636950549,-16.071487782126088],"max":[21.160295549883426,-2.9632912782660887,8.631953678917206]},{"bufferView":55,"componentType":5126,"count":242,"type":"VEC3"},{"bufferView":56,"componentType":5126,"count":242,"type":"VEC2"},{"bufferView":57,"componentType":5123,"count":242,"type":"VEC4"},{"bufferView":58,"componentType":5126,"count":242,"type":"VEC4"},{"bufferView":59,"componentType":5125,"count":1230,"type":"SCALAR"},{"bufferView":60,"componentType":5126,"count":805,"type":"VEC3","min":[-30.927506827691438,-25.406241929386425,-24.477676947630908],"max":[15.503996275744054,-4.555225963851961,12.855688805562632]},{"bufferView":61,"componentType":5126,"count":805,"type":"VEC3"},{"bufferView":62,"componentType":5126,"count":805,"type":"VEC2"},{"bufferView":63,"componentType":5123,"count":805,"type":"VEC4"},{"bufferView":64,"componentType":5126,"count":805,"type":"VEC4"},{"bufferView":65,"componentType":5125,"count":3180,"type":"SCALAR"},{"bufferView":66,"componentType":5126,"count":242,"type":"VEC3","min":[-26.284503841633228,-22.77439636950549,-16.071487782126088],"max":[21.160295549883426,-2.9632912782660887,8.631953678917206]},{"bufferView":67,"componentType":5126,"count":242,"type":"VEC3"},{"bufferView":68,"componentType":5126,"count":242,"type":"VEC2"},{"bufferView":69,"componentType":5123,"count":242,"type":"VEC4"},{"bufferView":70,"componentType":5126,"count":242,"type":"VEC4"},{"bufferView":71,"componentType":5125,"count":1230,"type":"SCALAR"},{"bufferView":72,"componentType":5126,"count":805,"type":"VEC3","min":[-30.927506827691438,-25.406241929386425,-24.477676947630908],"max":[15.503996275744054,-4.555225963851961,12.855688805562632]},{"bufferView":73,"componentType":5126,"count":805,"type":"VEC3"},{"bufferView":74,"componentType":5126,"count":805,"type":"VEC2"},{"bufferView":75,"componentType":5123,"count":805,"type":"VEC4"},{"bufferView":76,"componentType":5126,"count":805,"type":"VEC4"},{"bufferView":77,"componentType":5125,"count":3180,"type":"SCALAR"},{"bufferView":78,"componentType":5126,"count":321,"type":"VEC3","min":[10.79723085185222,-1.5106227739822344,5.497460811250772],"max":[14.73468821822322,2.270518709807533,14.199890462038999]},{"bufferView":79,"componentType":5126,"count":321,"type":"VEC3"},{"bufferView":80,"componentType":5126,"count":321,"type":"VEC2"},{"bufferView":81,"componentType":5123,"count":321,"type":"VEC4"},{"bufferView":82,"componentType":5126,"count":321,"type":"VEC4"},{"bufferView":83,"componentType":5125,"count":1197,"type":"SCALAR"},{"bufferView":84,"componentType":5126,"count":538,"type":"VEC3","min":[6.245324249440454,-25.83917329098492,4.129674569530149],"max":[13.779150266390818,-20.54678311529505,15.632842801811933]},{"bufferView":85,"componentType":5126,"count":538,"type":"VEC3"},{"bufferView":86,"componentType":5126,"count":538,"type":"VEC2"},{"bufferView":87,"componentType":5123,"count":538,"type":"VEC4"},{"bufferView":88,"componentType":5126,"count":538,"type":"VEC4"},{"bufferView":89,"componentType":5125,"count":1746,"type":"SCALAR"},{"bufferView":90,"componentType":5126,"count":40,"type":"MAT4"},{"bufferView":91,"componentType":5126,"count":1,"type":"SCALAR","min":[0.0],"max":[0.0]},{"bufferView":92,"componentType":5126,"count":1,"type":"VEC3"},{"bufferView":93,"componentType":5126,"count":1,"type":"VEC4"},{"bufferView":94,"componentType":5126,"count":1,"type":"VEC3"},{"bufferView":95,"componentType":5126,"count":1,"type":"VEC4"},{"bufferView":96,"componentType":5126,"count":1,"type":"VEC3"},{"bufferView":97,"componentType":5126,"count":1,"type":"VEC4"},{"bufferView":98,"componentType":5126,"count":1,"type":"VEC3"},{"bufferView":99,"componentType":5126,"count":1,"type":"VEC4"},{"bufferView":100,"componentType":5126,"count":1,"type":"VEC3"},{"bufferView":101,"componentType":5126,"count":1,"type":"VEC4"},{"bufferView":102,"componentType":5126,"count":1,"type":"VEC3"},{"bufferView":103,"componentType":5126,"count":1,"type":"VEC4"},{"bufferView":104,"componentType":5126,"count":1,"type":"VEC3"},{"bufferView":105,"componentType":5126,"count":1,"type":"VEC4"},{"bufferView":106,"componentType":5126,"count":1,"type":"VEC3"},{"bufferView":107,"componentType":5126,"count":1,"type":"VEC4"},{"bufferView":108,"componentType":5126,"count":1,"type":"VEC3"},{"bufferView":109,"componentType":5126,"count":1,"type":"VEC4"},{"bufferView":110,"componentType":5126,"count":1,"type":"VEC3"},{"bufferView":111,"componentType":5126,"count":1,"type":"VEC4"},{"bufferView":112,"componentType":5126,"count":1,"type":"VEC3"},{"bufferView":113,"componentType":5126,"count":1,"type":"VEC4"},{"bufferView":114,"componentType":5126,"count":1,"type":"VEC3"},{"bufferView":115,"componentType":5126,"count":1,"type":"VEC4"},{"bufferView":116,"componentType":5126,"count":1,"type":"VEC3"},{"bufferView":117,"componentType":5126,"count":1,"type":"VEC4"},{"bufferView":118,"componentType":5126,"count":1,"type":"VEC3"},{"bufferView":119,"componentType":5126,"count":1,"type":"VEC4"},{"bufferView":120,"componentType":5126,"count":1,"type":"VEC3"},{"bufferView":121,"componentType":5126,"count":1,"type":"VEC4"},{"bufferView":122,"componentType":5126,"count":1,"type":"VEC3"},{"bufferView":123,"componentType":5126,"count":1,"type":"VEC4"},{"bufferView":124,"componentType":5126,"count":1,"type":"VEC3"},{"bufferView":125,"componentType":5126,"count":1,"type":"VEC4"},{"bufferView":126,"componentType":5126,"count":1,"type":"VEC3"},{"bufferView":127,"componentType":5126,"count":1,"type":"VEC4"},{"bufferView":128,"componentType":5126,"count":1,"type":"VEC3"},{"bufferView":129,"componentType":5126,"count":1,"type":"VEC4"},{"bufferView":130,"componentType":5126,"count":1,"type":"VEC3"},{"bufferView":131,"componentType":5126,"count":1,"type":"VEC4"},{"bufferView":132,"componentType":5126,"count":1,"type":"VEC3"},{"bufferView":133,"componentType":5126,"count":1,"type":"VEC4"},{"bufferView":134,"componentType":5126,"count":1,"type":"VEC3"},{"bufferView":135,"componentType":5126,"count":1,"type":"VEC4"},{"bufferView":136,"componentType":5126,"count":1,"type":"VEC3"},{"bufferView":137,"componentType":5126,"count":1,"type":"VEC4"},{"bufferView":138,"componentType":5126,"count":1,"type":"VEC3"},{"bufferView":139,"componentType":5126,"count":1,"type":"VEC4"},{"bufferView":140,"componentType":5126,"count":1,"type":"VEC3"},{"bufferView":141,"componentType":5126,"count":1,"type":"VEC4"},{"bufferView":142,"componentType":5126,"count":1,"type":"VEC3"},{"bufferView":143,"componentType":5126,"count":1,"type":"VEC4"},{"bufferView":144,"componentType":5126,"count":1,"type":"VEC3"},{"bufferView":145,"componentType":5126,"count":1,"type":"VEC4"},{"bufferView":146,"componentType":5126,"count":1,"type":"VEC3"},{"bufferView":147,"componentType":5126,"count":1,"type":"VEC4"},{"bufferView":148,"componentType":5126,"count":1,"type":"VEC3"},{"bufferView":149,"componentType":5126,"count":1,"type":"VEC4"},{"bufferView":150,"componentType":5126,"count":1,"type":"VEC3"},{"bufferView":151,"componentType":5126,"count":1,"type":"VEC4"},{"bufferView":152,"componentType":5126,"count":1,"type":"VEC3"},{"bufferView":153,"componentType":5126,"count":1,"type":"VEC4"},{"bufferView":154,"componentType":5126,"count":1,"type":"VEC3"},{"bufferView":155,"componentType":5126,"count":1,"type":"VEC4"},{"bufferView":156,"componentType":5126,"count":1,"type":"VEC3"},{"bufferView":157,"componentType":5126,"count":1,"type":"VEC4"},{"bufferView":158,"componentType":5126,"count":1,"type":"VEC3"},{"bufferView":159,"componentType":5126,"count":1,"type":"VEC4"},{"bufferView":160,"componentType":5126,"count":1,"type":"VEC3"},{"bufferView":161,"componentType":5126,"count":1,"type":"VEC4"},{"bufferView":162,"componentType":5126,"count":1,"type":"VEC3"},{"bufferView":163,"componentType":5126,"count":1,"type":"VEC4"},{"bufferView":164,"componentType":5126,"count":1,"type":"VEC3"},{"bufferView":165,"componentType":5126,"count":1,"type":"VEC4"},{"bufferView":166,"componentType":5126,"count":1,"type":"VEC3"},{"bufferView":167,"componentType":5126,"count":1,"type":"VEC4"},{"bufferView":168,"componentType":5126,"count":1,"type":"VEC3"},{"bufferView":169,"componentType":5126,"count":1,"type":"VEC4"},{"bufferView":170,"componentType":5126,"count":1,"type":"VEC3"},{"bufferView":171,"componentType":5126,"count":1,"type":"VEC4"},{"bufferView":172,"componentType":5126,"count":30,"type":"SCALAR","min":[0.0],"max":[0.6444444444444445]},{"bufferView":173,"componentType":5126,"count":30,"type":"VEC3"},{"bufferView":174,"componentType":5126,"count":30,"type":"VEC4"},{"bufferView":175,"componentType":5126,"count":30,"type":"VEC3"},{"bufferView":176,"componentType":5126,"count":30,"type":"VEC4"},{"bufferView":177,"componentType":5126,"count":30,"type":"VEC3"},{"bufferView":178,"componentType":5126,"count":30,"type":"VEC4"},{"bufferView":179,"componentType":5126,"count":30,"type":"VEC3"},{"bufferView":180,"componentType":5126,"count":30,"type":"VEC4"},{"bufferView":181,"componentType":5126,"count":30,"type":"VEC3"},{"bufferView":182,"componentType":5126,"count":30,"type":"VEC4"},{"bufferView":183,"componentType":5126,"count":30,"type":"VEC3"},{"bufferView":184,"componentType":5126,"count":30,"type":"VEC4"},{"bufferView":185,"componentType":5126,"count":30,"type":"VEC3"},{"bufferView":186,"componentType":5126,"count":30,"type":"VEC4"},{"bufferView":187,"componentType":5126,"count":30,"type":"VEC3"},{"bufferView":188,"componentType":5126,"count":30,"type":"VEC4"},{"bufferView":189,"componentType":5126,"count":30,"type":"VEC3"},{"bufferView":190,"componentType":5126,"count":30,"type":"VEC4"},{"bufferView":191,"componentType":5126,"count":30,"type":"VEC3"},{"bufferView":192,"componentType":5126,"count":30,"type":"VEC4"},{"bufferView":193,"componentType":5126,"count":30,"type":"VEC3"},{"bufferView":194,"componentType":5126,"count":30,"type":"VEC4"},{"bufferView":195,"componentType":5126,"count":30,"type":"VEC3"},{"bufferView":196,"componentType":5126,"count":30,"type":"VEC4"},{"bufferView":197,"componentType":5126,"count":30,"type":"VEC3"},{"bufferView":198,"componentType":5126,"count":30,"type":"VEC4"},{"bufferView":199,"componentType":5126,"count":30,"type":"VEC3"},{"bufferView":200,"componentType":5126,"count":30,"type":"VEC4"},{"bufferView":201,"componentType":5126,"count":30,"type":"VEC3"},{"bufferView":202,"componentType":5126,"count":30,"type":"VEC4"},{"bufferView":203,"componentType":5126,"count":30,"type":"VEC3"},{"bufferView":204,"componentType":5126,"count":30,"type":"VEC4"},{"bufferView":205,"componentType":5126,"count":30,"type":"VEC3"},{"bufferView":206,"componentType":5126,"count":30,"type":"VEC4"},{"bufferView":207,"componentType":5126,"count":30,"type":"VEC3"},{"bufferView":208,"componentType":5126,"count":30,"type":"VEC4"},{"bufferView":209,"componentType":5126,"count":30,"type":"VEC3"},{"bufferView":210,"componentType":5126,"count":30,"type":"VEC4"},{"bufferView":211,"componentType":5126,"count":30,"type":"VEC3"},{"bufferView":212,"componentType":5126,"count":30,"type":"VEC4"},{"bufferView":213,"componentType":5126,"count":30,"type":"VEC3"},{"bufferView":214,"componentType":5126,"count":30,"type":"VEC4"},{"bufferView":215,"componentType":5126,"count":30,"type":"VEC3"},{"bufferView":216,"componentType":5126,"count":30,"type":"VEC4"},{"bufferView":217,"componentType":5126,"count":30,"type":"VEC3"},{"bufferView":218,"componentType":5126,"count":30,"type":"VEC4"},{"bufferView":219,"componentType":5126,"count":30,"type":"VEC3"},{"bufferView":220,"componentType":5126,"count":30,"type":"VEC4"},{"bufferView":221,"componentType":5126,"count":30,"type":"VEC3"},{"bufferView":222,"componentType":5126,"count":30,"type":"VEC4"},{"bufferView":223,"componentType":5126,"count":30,"type":"VEC3"},{"bufferView":224,"componentType":5126,"count":30,"type":"VEC4"},{"bufferView":225,"componentType":5126,"count":30,"type":"VEC3"},{"bufferView":226,"componentType":5126,"count":30,"type":"VEC4"},{"bufferView":227,"componentType":5126,"count":30,"type":"VEC3"},{"bufferView":228,"componentType":5126,"count":30,"type":"VEC4"},{"bufferView":229,"componentType":5126,"count":30,"type":"VEC3"},{"bufferView":230,"componentType":5126,"count":30,"type":"VEC4"},{"bufferView":231,"componentType":5126,"count":30,"type":"VEC3"},{"bufferView":232,"componentType":5126,"count":30,"type":"VEC4"},{"bufferView":233,"componentType":5126,"count":30,"type":"VEC3"},{"bufferView":234,"componentType":5126,"count":30,"type":"VEC4"},{"bufferView":235,"componentType":5126,"count":30,"type":"VEC3"},{"bufferView":236,"componentType":5126,"count":30,"type":"VEC4"},{"bufferView":237,"componentType":5126,"count":30,"type":"VEC3"},{"bufferView":238,"componentType":5126,"count":30,"type":"VEC4"},{"bufferView":239,"componentType":5126,"count":30,"type":"VEC3"},{"bufferView":240,"componentType":5126,"count":30,"type":"VEC4"},{"bufferView":241,"componentType":5126,"count":30,"type":"VEC3"},{"bufferView":242,"componentType":5126,"count":30,"type":"VEC4"},{"bufferView":243,"componentType":5126,"count":30,"type":"VEC3"},{"bufferView":244,"componentType":5126,"count":30,"type":"VEC4"},{"bufferView":245,"componentType":5126,"count":30,"type":"VEC3"},{"bufferView":246,"componentType":5126,"count":30,"type":"VEC4"},{"bufferView":247,"componentType":5126,"count":30,"type":"VEC3"},{"bufferView":248,"componentType":5126,"count":30,"type":"VEC4"},{"bufferView":249,"componentType":5126,"count":30,"type":"VEC3"},{"bufferView":250,"componentType":5126,"count":30,"type":"VEC4"},{"bufferView":251,"componentType":5126,"count":30,"type":"VEC3"},{"bufferView":252,"componentType":5126,"count":30,"type":"VEC4"},{"bufferView":253,"componentType":5126,"count":10,"type":"SCALAR","min":[0.0],"max":[0.225]},{"bufferView":254,"componentType":5126,"count":10,"type":"VEC3"},{"bufferView":255,"componentType":5126,"count":10,"type":"VEC4"},{"bufferView":256,"componentType":5126,"count":10,"type":"VEC3"},{"bufferView":257,"componentType":5126,"count":10,"type":"VEC4"},{"bufferView":258,"componentType":5126,"count":10,"type":"VEC3"},{"bufferView":259,"componentType":5126,"count":10,"type":"VEC4"},{"bufferView":260,"componentType":5126,"count":10,"type":"VEC3"},{"bufferView":261,"componentType":5126,"count":10,"type":"VEC4"},{"bufferView":262,"componentType":5126,"count":10,"type":"VEC3"},{"bufferView":263,"componentType":5126,"count":10,"type":"VEC4"},{"bufferView":264,"componentType":5126,"count":10,"type":"VEC3"},{"bufferView":265,"componentType":5126,"count":10,"type":"VEC4"},{"bufferView":266,"componentType":5126,"count":10,"type":"VEC3"},{"bufferView":267,"componentType":5126,"count":10,"type":"VEC4"},{"bufferView":268,"componentType":5126,"count":10,"type":"VEC3"},{"bufferView":269,"componentType":5126,"count":10,"type":"VEC4"},{"bufferView":270,"componentType":5126,"count":10,"type":"VEC3"},{"bufferView":271,"componentType":5126,"count":10,"type":"VEC4"},{"bufferView":272,"componentType":5126,"count":10,"type":"VEC3"},{"bufferView":273,"componentType":5126,"count":10,"type":"VEC4"},{"bufferView":274,"componentType":5126,"count":10,"type":"VEC3"},{"bufferView":275,"componentType":5126,"count":10,"type":"VEC4"},{"bufferView":276,"componentType":5126,"count":10,"type":"VEC3"},{"bufferView":277,"componentType":5126,"count":10,"type":"VEC4"},{"bufferView":278,"componentType":5126,"count":10,"type":"VEC3"},{"bufferView":279,"componentType":5126,"count":10,"type":"VEC4"},{"bufferView":280,"componentType":5126,"count":10,"type":"VEC3"},{"bufferView":281,"componentType":5126,"count":10,"type":"VEC4"},{"bufferView":282,"componentType":5126,"count":10,"type":"VEC3"},{"bufferView":283,"componentType":5126,"count":10,"type":"VEC4"},{"bufferView":284,"componentType":5126,"count":10,"type":"VEC3"},{"bufferView":285,"componentType":5126,"count":10,"type":"VEC4"},{"bufferView":286,"componentType":5126,"count":10,"type":"VEC3"},{"bufferView":287,"componentType":5126,"count":10,"type":"VEC4"},{"bufferView":288,"componentType":5126,"count":10,"type":"VEC3"},{"bufferView":289,"componentType":5126,"count":10,"type":"VEC4"},{"bufferView":290,"componentType":5126,"count":10,"type":"VEC3"},{"bufferView":291,"componentType":5126,"count":10,"type":"VEC4"},{"bufferView":292,"componentType":5126,"count":10,"type":"VEC3"},{"bufferView":293,"componentType":5126,"count":10,"type":"VEC4"},{"bufferView":294,"componentType":5126,"count":10,"type":"VEC3"},{"bufferView":295,"componentType":5126,"count":10,"type":"VEC4"},{"bufferView":296,"componentType":5126,"count":10,"type":"VEC3"},{"bufferView":297,"componentType":5126,"count":10,"type":"VEC4"},{"bufferView":298,"componentType":5126,"count":10,"type":"VEC3"},{"bufferView":299,"componentType":5126,"count":10,"type":"VEC4"},{"bufferView":300,"componentType":5126,"count":10,"type":"VEC3"},{"bufferView":301,"componentType":5126,"count":10,"type":"VEC4"},{"bufferView":302,"componentType":5126,"count":10,"type":"VEC3"},{"bufferView":303,"componentType":5126,"count":10,"type":"VEC4"},{"bufferView":304,"componentType":5126,"count":10,"type":"VEC3"},{"bufferView":305,"componentType":5126,"count":10,"type":"VEC4"},{"bufferView":306,"componentType":5126,"count":10,"type":"VEC3"},{"bufferView":307,"componentType":5126,"count":10,"type":"VEC4"},{"bufferView":308,"componentType":5126,"count":10,"type":"VEC3"},{"bufferView":309,"componentType":5126,"count":10,"type":"VEC4"},{"bufferView":310,"componentType":5126,"count":10,"type":"VEC3"},{"bufferView":311,"componentType":5126,"count":10,"type":"VEC4"},{"bufferView":312,"componentType":5126,"count":10,"type":"VEC3"},{"bufferView":313,"componentType":5126,"count":10,"type":"VEC4"},{"bufferView":314,"componentType":5126,"count":10,"type":"VEC3"},{"bufferView":315,"componentType":5126,"count":10,"type":"VEC4"},{"bufferView":316,"componentType":5126,"count":10,"type":"VEC3"},{"bufferView":317,"componentType":5126,"count":10,"type":"VEC4"},{"bufferView":318,"componentType":5126,"count":10,"type":"VEC3"},{"bufferView":319,"componentType":5126,"count":10,"type":"VEC4"},{"bufferView":320,"componentType":5126,"count":10,"type":"VEC3"},{"bufferView":321,"componentType":5126,"count":10,"type":"VEC4"},{"bufferView":322,"componentType":5126,"count":10,"type":"VEC3"},{"bufferView":323,"componentType":5126,"count":10,"type":"VEC4"},{"bufferView":324,"componentType":5126,"count":10,"type":"VEC3"},{"bufferView":325,"componentType":5126,"count":10,"type":"VEC4"},{"bufferView":326,"componentType":5126,"count":10,"type":"VEC3"},{"bufferView":327,"componentType":5126,"count":10,"type":"VEC4"},{"bufferView":328,"componentType":5126,"count":10,"type":"VEC3"},{"bufferView":329,"componentType":5126,"count":10,"type":"VEC4"},{"bufferView":330,"componentType":5126,"count":10,"type":"VEC3"},{"bufferView":331,"componentType":5126,"count":10,"type":"VEC4"},{"bufferView":332,"componentType":5126,"count":10,"type":"VEC3"},{"bufferView":333,"componentType":5126,"count":10,"type":"VEC4"},{"bufferView":334,"componentType":5126,"count":10,"type":"SCALAR","min":[0.0],"max":[0.6]},{"bufferView":335,"componentType":5126,"count":10,"type":"VEC3"},{"bufferView":336,"componentType":5126,"count":10,"type":"VEC4"},{"bufferView":337,"componentType":5126,"count":10,"type":"VEC3"},{"bufferView":338,"componentType":5126,"count":10,"type":"VEC4"},{"bufferView":339,"componentType":5126,"count":10,"type":"VEC3"},{"bufferView":340,"componentType":5126,"count":10,"type":"VEC4"},{"bufferView":341,"componentType":5126,"count":10,"type":"VEC3"},{"bufferView":342,"componentType":5126,"count":10,"type":"VEC4"},{"bufferView":343,"componentType":5126,"count":10,"type":"VEC3"},{"bufferView":344,"componentType":5126,"count":10,"type":"VEC4"},{"bufferView":345,"componentType":5126,"count":10,"type":"VEC3"},{"bufferView":346,"componentType":5126,"count":10,"type":"VEC4"},{"bufferView":347,"componentType":5126,"count":10,"type":"VEC3"},{"bufferView":348,"componentType":5126,"count":10,"type":"VEC4"},{"bufferView":349,"componentType":5126,"count":10,"type":"VEC3"},{"bufferView":350,"componentType":5126,"count":10,"type":"VEC4"},{"bufferView":351,"componentType":5126,"count":10,"type":"VEC3"},{"bufferView":352,"componentType":5126,"count":10,"type":"VEC4"},{"bufferView":353,"componentType":5126,"count":10,"type":"VEC3"},{"bufferView":354,"componentType":5126,"count":10,"type":"VEC4"},{"bufferView":355,"componentType":5126,"count":10,"type":"VEC3"},{"bufferView":356,"componentType":5126,"count":10,"type":"VEC4"},{"bufferView":357,"componentType":5126,"count":10,"type":"VEC3"},{"bufferView":358,"componentType":5126,"count":10,"type":"VEC4"},{"bufferView":359,"componentType":5126,"count":10,"type":"VEC3"},{"bufferView":360,"componentType":5126,"count":10,"type":"VEC4"},{"bufferView":361,"componentType":5126,"count":10,"type":"VEC3"},{"bufferView":362,"componentType":5126,"count":10,"type":"VEC4"},{"bufferView":363,"componentType":5126,"count":10,"type":"VEC3"},{"bufferView":364,"componentType":5126,"count":10,"type":"VEC4"},{"bufferView":365,"componentType":5126,"count":10,"type":"VEC3"},{"bufferView":366,"componentType":5126,"count":10,"type":"VEC4"},{"bufferView":367,"componentType":5126,"count":10,"type":"VEC3"},{"bufferView":368,"componentType":5126,"count":10,"type":"VEC4"},{"bufferView":369,"componentType":5126,"count":10,"type":"VEC3"},{"bufferView":370,"componentType":5126,"count":10,"type":"VEC4"},{"bufferView":371,"componentType":5126,"count":10,"type":"VEC3"},{"bufferView":372,"componentType":5126,"count":10,"type":"VEC4"},{"bufferView":373,"componentType":5126,"count":10,"type":"VEC3"},{"bufferView":374,"componentType":5126,"count":10,"type":"VEC4"},{"bufferView":375,"componentType":5126,"count":10,"type":"VEC3"},{"bufferView":376,"componentType":5126,"count":10,"type":"VEC4"},{"bufferView":377,"componentType":5126,"count":10,"type":"VEC3"},{"bufferView":378,"componentType":5126,"count":10,"type":"VEC4"},{"bufferView":379,"componentType":5126,"count":10,"type":"VEC3"},{"bufferView":380,"componentType":5126,"count":10,"type":"VEC4"},{"bufferView":381,"componentType":5126,"count":10,"type":"VEC3"},{"bufferView":382,"componentType":5126,"count":10,"type":"VEC4"},{"bufferView":383,"componentType":5126,"count":10,"type":"VEC3"},{"bufferView":384,"componentType":5126,"count":10,"type":"VEC4"},{"bufferView":385,"componentType":5126,"count":10,"type":"VEC3"},{"bufferView":386,"componentType":5126,"count":10,"type":"VEC4"},{"bufferView":387,"componentType":5126,"count":10,"type":"VEC3"},{"bufferView":388,"componentType":5126,"count":10,"type":"VEC4"},{"bufferView":389,"componentType":5126,"count":10,"type":"VEC3"},{"bufferView":390,"componentType":5126,"count":10,"type":"VEC4"},{"bufferView":391,"componentType":5126,"count":10,"type":"VEC3"},{"bufferView":392,"componentType":5126,"count":10,"type":"VEC4"},{"bufferView":393,"componentType":5126,"count":10,"type":"VEC3"},{"bufferView":394,"componentType":5126,"count":10,"type":"VEC4"},{"bufferView":395,"componentType":5126,"count":10,"type":"VEC3"},{"bufferView":396,"componentType":5126,"count":10,"type":"VEC4"},{"bufferView":397,"componentType":5126,"count":10,"type":"VEC3"},{"bufferView":398,"componentType":5126,"count":10,"type":"VEC4"},{"bufferView":399,"componentType":5126,"count":10,"type":"VEC3"},{"bufferView":400,"componentType":5126,"count":10,"type":"VEC4"},{"bufferView":401,"componentType":5126,"count":10,"type":"VEC3"},{"bufferView":402,"componentType":5126,"count":10,"type":"VEC4"},{"bufferView":403,"componentType":5126,"count":10,"type":"VEC3"},{"bufferView":404,"componentType":5126,"count":10,"type":"VEC4"},{"bufferView":405,"componentType":5126,"count":10,"type":"VEC3"},{"bufferView":406,"componentType":5126,"count":10,"type":"VEC4"},{"bufferView":407,"componentType":5126,"count":10,"type":"VEC3"},{"bufferView":408,"componentType":5126,"count":10,"type":"VEC4"},{"bufferView":409,"componentType":5126,"count":10,"type":"VEC3"},{"bufferView":410,"componentType":5126,"count":10,"type":"VEC4"},{"bufferView":411,"componentType":5126,"count":10,"type":"VEC3"},{"bufferView":412,"componentType":5126,"count":10,"type":"VEC4"},{"bufferView":413,"componentType":5126,"count":10,"type":"VEC3"},{"bufferView":414,"componentType":5126,"count":10,"type":"VEC4"}],"bufferViews":[{"buffer":0,"byteOffset":0,"byteLength":24,"target":34962},{"buffer":0,"byteOffset":24,"byteLength":24,"target":34962},{"buffer":0,"byteOffset":48,"byteLength":16,"target":34962},{"buffer":0,"byteOffset":64,"byteLength":16,"target":34962},{"buffer":0,"byteOffset":80,"byteLength":32,"target":34962},{"buffer":0,"byteOffset":112,"byteLength":12,"target":34963},{"buffer":0,"byteOffset":124,"byteLength":9660,"target":34962},{"buffer":0,"byteOffset":9784,"byteLength":9660,"target":34962},{"buffer":0,"byteOffset":19444,"byteLength":6440,"target":34962},{"buffer":0,"byteOffset":25884,"byteLength":6440,"target":34962},{"buffer":0,"byteOffset":32324,"byteLength":12880,"target":34962},{"buffer":0,"byteOffset":45204,"byteLength":12720,"target":34963},{"buffer":0,"byteOffset":57924,"byteLength":2040,"target":34962},{"buffer":0,"byteOffset":59964,"byteLength":2040,"target":34962},{"buffer":0,"byteOffset":62004,"byteLength":1360,"target":34962},{"buffer":0,"byteOffset":63364,"byteLength":1360,"target":34962},{"buffer":0,"byteOffset":64724,"byteLength":2720,"target":34962},{"buffer":0,"byteOffset":67444,"byteLength":3288,"target":34963},{"buffer":0,"byteOffset":70732,"byteLength":9660,"target":34962},{"buffer":0,"byteOffset":80392,"byteLength":9660,"target":34962},{"buffer":0,"byteOffset":90052,"byteLength":6440,"target":34962},{"buffer":0,"byteOffset":96492,"byteLength":6440,"target":34962},{"buffer":0,"byteOffset":102932,"byteLength":12880,"target":34962},{"buffer":0,"byteOffset":115812,"byteLength":12720,"target":34963},{"buffer":0,"byteOffset":128532,"byteLength":2040,"target":34962},{"buffer":0,"byteOffset":130572,"byteLength":2040,"target":34962},{"buffer":0,"byteOffset":132612,"byteLength":1360,"target":34962},{"buffer":0,"byteOffset":133972,"byteLength":1360,"target":34962},{"buffer":0,"byteOffset":135332,"byteLength":2720,"target":34962},{"buffer":0,"byteOffset":138052,"byteLength":3288,"target":34963},{"buffer":0,"byteOffset":141340,"byteLength":9660,"target":34962},{"buffer":0,"byteOffset":151000,"byteLength":9660,"target":34962},{"buffer":0,"byteOffset":160660,"byteLength":6440,"target":34962},{"buffer":0,"byteOffset":167100,"byteLength":6440,"target":34962},{"buffer":0,"byteOffset":173540,"byteLength":12880,"target":34962},{"buffer":0,"byteOffset":186420,"byteLength":12720,"target":34963},{"buffer":0,"byteOffset":199140,"byteLength":2040,"target":34962},{"buffer":0,"byteOffset":201180,"byteLength":2040,"target":34962},{"buffer":0,"byteOffset":203220,"byteLength":1360,"target":34962},{"buffer":0,"byteOffset":204580,"byteLength":1360,"target":34962},{"buffer":0,"byteOffset":205940,"byteLength":2720,"target":34962},{"buffer":0,"byteOffset":208660,"byteLength":3288,"target":34963},{"buffer":0,"byteOffset":211948,"byteLength":2904,"target":34962},{"buffer":0,"byteOffset":214852,"byteLength":2904,"target":34962},{"buffer":0,"byteOffset":217756,"byteLength":1936,"target":34962},{"buffer":0,"byteOffset":219692,"byteLength":1936,"target":34962},{"buffer":0,"byteOffset":221628,"byteLength":3872,"target":34962},{"buffer":0,"byteOffset":225500,"byteLength":4920,"target":34963},{"buffer":0,"byteOffset":230420,"byteLength":9660,"target":34962},{"buffer":0,"byteOffset":240080,"byteLength":9660,"target":34962},{"buffer":0,"byteOffset":249740,"byteLength":6440,"target":34962},{"buffer":0,"byteOffset":256180,"byteLength":6440,"target":34962},{"buffer":0,"byteOffset":262620,"byteLength":12880,"target":34962},{"buffer":0,"byteOffset":275500,"byteLength":12720,"target":34963},{"buffer":0,"byteOffset":288220,"byteLength":2904,"target":34962},{"buffer":0,"byteOffset":291124,"byteLength":2904,"target":34962},{"buffer":0,"byteOffset":294028,"byteLength":1936,"target":34962},{"buffer":0,"byteOffset":295964,"byteLength":1936,"target":34962},{"buffer":0,"byteOffset":297900,"byteLength":3872,"target":34962},{"buffer":0,"byteOffset":301772,"byteLength":4920,"target":34963},{"buffer":0,"byteOffset":306692,"byteLength":9660,"target":34962},{"buffer":0,"byteOffset":316352,"byteLength":9660,"target":34962},{"buffer":0,"byteOffset":326012,"byteLength":6440,"target":34962},{"buffer":0,"byteOffset":332452,"byteLength":6440,"target":34962},{"buffer":0,"byteOffset":338892,"byteLength":12880,"target":34962},{"buffer":0,"byteOffset":351772,"byteLength":12720,"target":34963},{"buffer":0,"byteOffset":364492,"byteLength":2904,"target":34962},{"buffer":0,"byteOffset":367396,"byteLength":2904,"target":34962},{"buffer":0,"byteOffset":370300,"byteLength":1936,"target":34962},{"buffer":0,"byteOffset":372236,"byteLength":1936,"target":34962},{"buffer":0,"byteOffset":374172,"byteLength":3872,"target":34962},{"buffer":0,"byteOffset":378044,"byteLength":4920,"target":34963},{"buffer":0,"byteOffset":382964,"byteLength":9660,"target":34962},{"buffer":0,"byteOffset":392624,"byteLength":9660,"target":34962},{"buffer":0,"byteOffset":402284,"byteLength":6440,"target":34962},{"buffer":0,"byteOffset":408724,"byteLength":6440,"target":34962},{"buffer":0,"byteOffset":415164,"byteLength":12880,"target":34962},{"buffer":0,"byteOffset":428044,"byteLength":12720,"target":34963},{"buffer":0,"byteOffset":440764,"byteLength":3852,"target":34962},{"buffer":0,"byteOffset":444616,"byteLength":3852,"target":34962},{"buffer":0,"byteOffset":448468,"byteLength":2568,"target":34962},{"buffer":0,"byteOffset":451036,"byteLength":2568,"target":34962},{"buffer":0,"byteOffset":453604,"byteLength":5136,"target":34962},{"buffer":0,"byteOffset":458740,"byteLength":4788,"target":34963},{"buffer":0,"byteOffset":463528,"byteLength":6456,"target":34962},{"buffer":0,"byteOffset":469984,"byteLength":6456,"target":34962},{"buffer":0,"byteOffset":476440,"byteLength":4304,"target":34962},{"buffer":0,"byteOffset":480744,"byteLength":4304,"target":34962},{"buffer":0,"byteOffset":485048,"byteLength":8608,"target":34962},{"buffer":0,"byteOffset":493656,"byteLength":6984,"target":34963},{"buffer":0,"byteOffset":500640,"byteLength":2560},{"buffer":0,"byteOffset":503200,"byteLength":4},{"buffer":0,"byteOffset":503204,"byteLength":12},{"buffer":0,"byteOffset":503216,"byteLength":16},{"buffer":0,"byteOffset":503232,"byteLength":12},{"buffer":0,"byteOffset":503244,"byteLength":16},{"buffer":0,"byteOffset":503260,"byteLength":12},{"buffer":0,"byteOffset":503272,"byteLength":16},{"buffer":0,"byteOffset":503288,"byteLength":12},{"buffer":0,"byteOffset":503300,"byteLength":16},{"buffer":0,"byteOffset":503316,"byteLength":12},{"buffer":0,"byteOffset":503328,"byteLength":16},{"buffer":0,"byteOffset":503344,"byteLength":12},{"buffer":0,"byteOffset":503356,"byteLength":16},{"buffer":0,"byteOffset":503372,"byteLength":12},{"buffer":0,"byteOffset":503384,"byteLength":16},{"buffer":0,"byteOffset":503400,"byteLength":12},{"buffer":0,"byteOffset":503412,"byteLength":16},{"buffer":0,"byteOffset":503428,"byteLength":12},{"buffer":0,"byteOffset":503440,"byteLength":16},{"buffer":0,"byteOffset":503456,"byteLength":12},{"buffer":0,"byteOffset":503468,"byteLength":16},{"buffer":0,"byteOffset":503484,"byteLength":12},{"buffer":0,"byteOffset":503496,"byteLength":16},{"buffer":0,"byteOffset":503512,"byteLength":12},{"buffer":0,"byteOffset":503524,"byteLength":16},{"buffer":0,"byteOffset":503540,"byteLength":12},{"buffer":0,"byteOffset":503552,"byteLength":16},{"buffer":0,"byteOffset":503568,"byteLength":12},{"buffer":0,"byteOffset":503580,"byteLength":16},{"buffer":0,"byteOffset":503596,"byteLength":12},{"buffer":0,"byteOffset":503608,"byteLength":16},{"buffer":0,"byteOffset":503624,"byteLength":12},{"buffer":0,"byteOffset":503636,"byteLength":16},{"buffer":0,"byteOffset":503652,"byteLength":12},{"buffer":0,"byteOffset":503664,"byteLength":16},{"buffer":0,"byteOffset":503680,"byteLength":12},{"buffer":0,"byteOffset":503692,"byteLength":16},{"buffer":0,"byteOffset":503708,"byteLength":12},{"buffer":0,"byteOffset":503720,"byteLength":16},{"buffer":0,"byteOffset":503736,"byteLength":12},{"buffer":0,"byteOffset":503748,"byteLength":16},{"buffer":0,"byteOffset":503764,"byteLength":12},{"buffer":0,"byteOffset":503776,"byteLength":16},{"buffer":0,"byteOffset":503792,"byteLength":12},{"buffer":0,"byteOffset":503804,"byteLength":16},{"buffer":0,"byteOffset":503820,"byteLength":12},{"buffer":0,"byteOffset":503832,"byteLength":16},{"buffer":0,"byteOffset":503848,"byteLength":12},{"buffer":0,"byteOffset":503860,"byteLength":16},{"buffer":0,"byteOffset":503876,"byteLength":12},{"buffer":0,"byteOffset":503888,"byteLength":16},{"buffer":0,"byteOffset":503904,"byteLength":12},{"buffer":0,"byteOffset":503916,"byteLength":16},{"buffer":0,"byteOffset":503932,"byteLength":12},{"buffer":0,"byteOffset":503944,"byteLength":16},{"buffer":0,"byteOffset":503960,"byteLength":12},{"buffer":0,"byteOffset":503972,"byteLength":16},{"buffer":0,"byteOffset":503988,"byteLength":12},{"buffer":0,"byteOffset":504000,"byteLength":16},{"buffer":0,"byteOffset":504016,"byteLength":12},{"buffer":0,"byteOffset":504028,"byteLength":16},{"buffer":0,"byteOffset":504044,"byteLength":12},{"buffer":0,"byteOffset":504056,"byteLength":16},{"buffer":0,"byteOffset":504072,"byteLength":12},{"buffer":0,"byteOffset":504084,"byteLength":16},{"buffer":0,"byteOffset":504100,"byteLength":12},{"buffer":0,"byteOffset":504112,"byteLength":16},{"buffer":0,"byteOffset":504128,"byteLength":12},{"buffer":0,"byteOffset":504140,"byteLength":16},{"buffer":0,"byteOffset":504156,"byteLength":12},{"buffer":0,"byteOffset":504168,"byteLength":16},{"buffer":0,"byteOffset":504184,"byteLength":12},{"buffer":0,"byteOffset":504196,"byteLength":16},{"buffer":0,"byteOffset":504212,"byteLength":12},{"buffer":0,"byteOffset":504224,"byteLength":16},{"buffer":0,"byteOffset":504240,"byteLength":12},{"buffer":0,"byteOffset":504252,"byteLength":16},{"buffer":0,"byteOffset":504268,"byteLength":12},{"buffer":0,"byteOffset":504280,"byteLength":16},{"buffer":0,"byteOffset":504296,"byteLength":12},{"buffer":0,"byteOffset":504308,"byteLength":16},{"buffer":0,"byteOffset":504324,"byteLength":120},{"buffer":0,"byteOffset":504444,"byteLength":360},{"buffer":0,"byteOffset":504804,"byteLength":480},{"buffer":0,"byteOffset":505284,"byteLength":360},{"buffer":0,"byteOffset":505644,"byteLength":480},{"buffer":0,"byteOffset":506124,"byteLength":360},{"buffer":0,"byteOffset":506484,"byteLength":480},{"buffer":0,"byteOffset":506964,"byteLength":360},{"buffer":0,"byteOffset":507324,"byteLength":480},{"buffer":0,"byteOffset":507804,"byteLength":360},{"buffer":0,"byteOffset":508164,"byteLength":480},{"buffer":0,"byteOffset":508644,"byteLength":360},{"buffer":0,"byteOffset":509004,"byteLength":480},{"buffer":0,"byteOffset":509484,"byteLength":360},{"buffer":0,"byteOffset":509844,"byteLength":480},{"buffer":0,"byteOffset":510324,"byteLength":360},{"buffer":0,"byteOffset":510684,"byteLength":480},{"buffer":0,"byteOffset":511164,"byteLength":360},{"buffer":0,"byteOffset":511524,"byteLength":480},{"buffer":0,"byteOffset":512004,"byteLength":360},{"buffer":0,"byteOffset":512364,"byteLength":480},{"buffer":0,"byteOffset":512844,"byteLength":360},{"buffer":0,"byteOffset":513204,"byteLength":480},{"buffer":0,"byteOffset":513684,"byteLength":360},{"buffer":0,"byteOffset":514044,"byteLength":480},{"buffer":0,"byteOffset":514524,"byteLength":360},{"buffer":0,"byteOffset":514884,"byteLength":480},{"buffer":0,"byteOffset":515364,"byteLength":360},{"buffer":0,"byteOffset":515724,"byteLength":480},{"buffer":0,"byteOffset":516204,"byteLength":360},{"buffer":0,"byteOffset":516564,"byteLength":480},{"buffer":0,"byteOffset":517044,"byteLength":360},{"buffer":0,"byteOffset":517404,"byteLength":480},{"buffer":0,"byteOffset":517884,"byteLength":360},{"buffer":0,"byteOffset":518244,"byteLength":480},{"buffer":0,"byteOffset":518724,"byteLength":360},{"buffer":0,"byteOffset":519084,"byteLength":480},{"buffer":0,"byteOffset":519564,"byteLength":360},{"buffer":0,"byteOffset":519924,"byteLength":480},{"buffer":0,"byteOffset":520404,"byteLength":360},{"buffer":0,"byteOffset":520764,"byteLength":480},{"buffer":0,"byteOffset":521244,"byteLength":360},{"buffer":0,"byteOffset":521604,"byteLength":480},{"buffer":0,"byteOffset":522084,"byteLength":360},{"buffer":0,"byteOffset":522444,"byteLength":480},{"buffer":0,"byteOffset":522924,"byteLength":360},{"buffer":0,"byteOffset":523284,"byteLength":480},{"buffer":0,"byteOffset":523764,"byteLength":360},{"buffer":0,"byteOffset":524124,"byteLength":480},{"buffer":0,"byteOffset":524604,"byteLength":360},{"buffer":0,"byteOffset":524964,"byteLength":480},{"buffer":0,"byteOffset":525444,"byteLength":360},{"buffer":0,"byteOffset":525804,"byteLength":480},{"buffer":0,"byteOffset":526284,"byteLength":360},{"buffer":0,"byteOffset":526644,"byteLength":480},{"buffer":0,"byteOffset":527124,"byteLength":360},{"buffer":0,"byteOffset":527484,"byteLength":480},{"buffer":0,"byteOffset":527964,"byteLength":360},{"buffer":0,"byteOffset":528324,"byteLength":480},{"buffer":0,"byteOffset":528804,"byteLength":360},{"buffer":0,"byteOffset":529164,"byteLength":480},{"buffer":0,"byteOffset":529644,"byteLength":360},{"buffer":0,"byteOffset":530004,"byteLength":480},{"buffer":0,"byteOffset":530484,"byteLength":360},{"buffer":0,"byteOffset":530844,"byteLength":480},{"buffer":0,"byteOffset":531324,"byteLength":360},{"buffer":0,"byteOffset":531684,"byteLength":480},{"buffer":0,"byteOffset":532164,"byteLength":360},{"buffer":0,"byteOffset":532524,"byteLength":480},{"buffer":0,"byteOffset":533004,"byteLength":360},{"buffer":0,"byteOffset":533364,"byteLength":480},{"buffer":0,"byteOffset":533844,"byteLength":360},{"buffer":0,"byteOffset":534204,"byteLength":480},{"buffer":0,"byteOffset":534684,"byteLength":360},{"buffer":0,"byteOffset":535044,"byteLength":480},{"buffer":0,"byteOffset":535524,"byteLength":360},{"buffer":0,"byteOffset":535884,"byteLength":480},{"buffer":0,"byteOffset":536364,"byteLength":360},{"buffer":0,"byteOffset":536724,"byteLength":480},{"buffer":0,"byteOffset":537204,"byteLength":360},{"buffer":0,"byteOffset":537564,"byteLength":480},{"buffer":0,"byteOffset":538044,"byteLength":40},{"buffer":0,"byteOffset":538084,"byteLength":120},{"buffer":0,"byteOffset":538204,"byteLength":160},{"buffer":0,"byteOffset":538364,"byteLength":120},{"buffer":0,"byteOffset":538484,"byteLength":160},{"buffer":0,"byteOffset":538644,"byteLength":120},{"buffer":0,"byteOffset":538764,"byteLength":160},{"buffer":0,"byteOffset":538924,"byteLength":120},{"buffer":0,"byteOffset":539044,"byteLength":160},{"buffer":0,"byteOffset":539204,"byteLength":120},{"buffer":0,"byteOffset":539324,"byteLength":160},{"buffer":0,"byteOffset":539484,"byteLength":120},{"buffer":0,"byteOffset":539604,"byteLength":160},{"buffer":0,"byteOffset":539764,"byteLength":120},{"buffer":0,"byteOffset":539884,"byteLength":160},{"buffer":0,"byteOffset":540044,"byteLength":120},{"buffer":0,"byteOffset":540164,"byteLength":160},{"buffer":0,"byteOffset":540324,"byteLength":120},{"buffer":0,"byteOffset":540444,"byteLength":160},{"buffer":0,"byteOffset":540604,"byteLength":120},{"buffer":0,"byteOffset":540724,"byteLength":160},{"buffer":0,"byteOffset":540884,"byteLength":120},{"buffer":0,"byteOffset":541004,"byteLength":160},{"buffer":0,"byteOffset":541164,"byteLength":120},{"buffer":0,"byteOffset":541284,"byteLength":160},{"buffer":0,"byteOffset":541444,"byteLength":120},{"buffer":0,"byteOffset":541564,"byteLength":160},{"buffer":0,"byteOffset":541724,"byteLength":120},{"buffer":0,"byteOffset":541844,"byteLength":160},{"buffer":0,"byteOffset":542004,"byteLength":120},{"buffer":0,"byteOffset":542124,"byteLength":160},{"buffer":0,"byteOffset":542284,"byteLength":120},{"buffer":0,"byteOffset":542404,"byteLength":160},{"buffer":0,"byteOffset":542564,"byteLength":120},{"buffer":0,"byteOffset":542684,"byteLength":160},{"buffer":0,"byteOffset":542844,"byteLength":120},{"buffer":0,"byteOffset":542964,"byteLength":160},{"buffer":0,"byteOffset":543124,"byteLength":120},{"buffer":0,"byteOffset":543244,"byteLength":160},{"buffer":0,"byteOffset":543404,"byteLength":120},{"buffer":0,"byteOffset":543524,"byteLength":160},{"buffer":0,"byteOffset":543684,"byteLength":120},{"buffer":0,"byteOffset":543804,"byteLength":160},{"buffer":0,"byteOffset":543964,"byteLength":120},{"buffer":0,"byteOffset":544084,"byteLength":160},{"buffer":0,"byteOffset":544244,"byteLength":120},{"buffer":0,"byteOffset":544364,"byteLength":160},{"buffer":0,"byteOffset":544524,"byteLength":120},{"buffer":0,"byteOffset":544644,"byteLength":160},{"buffer":0,"byteOffset":544804,"byteLength":120},{"buffer":0,"byteOffset":544924,"byteLength":160},{"buffer":0,"byteOffset":545084,"byteLength":120},{"buffer":0,"byteOffset":545204,"byteLength":160},{"buffer":0,"byteOffset":545364,"byteLength":120},{"buffer":0,"byteOffset":545484,"byteLength":160},{"buffer":0,"byteOffset":545644,"byteLength":120},{"buffer":0,"byteOffset":545764,"byteLength":160},{"buffer":0,"byteOffset":545924,"byteLength":120},{"buffer":0,"byteOffset":546044,"byteLength":160},{"buffer":0,"byteOffset":546204,"byteLength":120},{"buffer":0,"byteOffset":546324,"byteLength":160},{"buffer":0,"byteOffset":546484,"byteLength":120},{"buffer":0,"byteOffset":546604,"byteLength":160},{"buffer":0,"byteOffset":546764,"byteLength":120},{"buffer":0,"byteOffset":546884,"byteLength":160},{"buffer":0,"byteOffset":547044,"byteLength":120},{"buffer":0,"byteOffset":547164,"byteLength":160},{"buffer":0,"byteOffset":547324,"byteLength":120},{"buffer":0,"byteOffset":547444,"byteLength":160},{"buffer":0,"byteOffset":547604,"byteLength":120},{"buffer":0,"byteOffset":547724,"byteLength":160},{"buffer":0,"byteOffset":547884,"byteLength":120},{"buffer":0,"byteOffset":548004,"byteLength":160},{"buffer":0,"byteOffset":548164,"byteLength":120},{"buffer":0,"byteOffset":548284,"byteLength":160},{"buffer":0,"byteOffset":548444,"byteLength":120},{"buffer":0,"byteOffset":548564,"byteLength":160},{"buffer":0,"byteOffset":548724,"byteLength":120},{"buffer":0,"byteOffset":548844,"byteLength":160},{"buffer":0,"byteOffset":549004,"byteLength":120},{"buffer":0,"byteOffset":549124,"byteLength":160},{"buffer":0,"byteOffset":549284,"byteLength":40},{"buffer":0,"byteOffset":549324,"byteLength":120},{"buffer":0,"byteOffset":549444,"byteLength":160},{"buffer":0,"byteOffset":549604,"byteLength":120},{"buffer":0,"byteOffset":549724,"byteLength":160},{"buffer":0,"byteOffset":549884,"byteLength":120},{"buffer":0,"byteOffset":550004,"byteLength":160},{"buffer":0,"byteOffset":550164,"byteLength":120},{"buffer":0,"byteOffset":550284,"byteLength":160},{"buffer":0,"byteOffset":550444,"byteLength":120},{"buffer":0,"byteOffset":550564,"byteLength":160},{"buffer":0,"byteOffset":550724,"byteLength":120},{"buffer":0,"byteOffset":550844,"byteLength":160},{"buffer":0,"byteOffset":551004,"byteLength":120},{"buffer":0,"byteOffset":551124,"byteLength":160},{"buffer":0,"byteOffset":551284,"byteLength":120},{"buffer":0,"byteOffset":551404,"byteLength":160},{"buffer":0,"byteOffset":551564,"byteLength":120},{"buffer":0,"byteOffset":551684,"byteLength":160},{"buffer":0,"byteOffset":551844,"byteLength":120},{"buffer":0,"byteOffset":551964,"byteLength":160},{"buffer":0,"byteOffset":552124,"byteLength":120},{"buffer":0,"byteOffset":552244,"byteLength":160},{"buffer":0,"byteOffset":552404,"byteLength":120},{"buffer":0,"byteOffset":552524,"byteLength":160},{"buffer":0,"byteOffset":552684,"byteLength":120},{"buffer":0,"byteOffset":552804,"byteLength":160},{"buffer":0,"byteOffset":552964,"byteLength":120},{"buffer":0,"byteOffset":553084,"byteLength":160},{"buffer":0,"byteOffset":553244,"byteLength":120},{"buffer":0,"byteOffset":553364,"byteLength":160},{"buffer":0,"byteOffset":553524,"byteLength":120},{"buffer":0,"byteOffset":553644,"byteLength":160},{"buffer":0,"byteOffset":553804,"byteLength":120},{"buffer":0,"byteOffset":553924,"byteLength":160},{"buffer":0,"byteOffset":554084,"byteLength":120},{"buffer":0,"byteOffset":554204,"byteLength":160},{"buffer":0,"byteOffset":554364,"byteLength":120},{"buffer":0,"byteOffset":554484,"byteLength":160},{"buffer":0,"byteOffset":554644,"byteLength":120},{"buffer":0,"byteOffset":554764,"byteLength":160},{"buffer":0,"byteOffset":554924,"byteLength":120},{"buffer":0,"byteOffset":555044,"byteLength":160},{"buffer":0,"byteOffset":555204,"byteLength":120},{"buffer":0,"byteOffset":555324,"byteLength":160},{"buffer":0,"byteOffset":555484,"byteLength":120},{"buffer":0,"byteOffset":555604,"byteLength":160},{"buffer":0,"byteOffset":555764,"byteLength":120},{"buffer":0,"byteOffset":555884,"byteLength":160},{"buffer":0,"byteOffset":556044,"byteLength":120},{"buffer":0,"byteOffset":556164,"byteLength":160},{"buffer":0,"byteOffset":556324,"byteLength":120},{"buffer":0,"byteOffset":556444,"byteLength":160},{"buffer":0,"byteOffset":556604,"byteLength":120},{"buffer":0,"byteOffset":556724,"byteLength":160},{"buffer":0,"byteOffset":556884,"byteLength":120},{"buffer":0,"byteOffset":557004,"byteLength":160},{"buffer":0,"byteOffset":557164,"byteLength":120},{"buffer":0,"byteOffset":557284,"byteLength":160},{"buffer":0,"byteOffset":557444,"byteLength":120},{"buffer":0,"byteOffset":557564,"byteLength":160},{"buffer":0,"byteOffset":557724,"byteLength":120},{"buffer":0,"byteOffset":557844,"byteLength":160},{"buffer":0,"byteOffset":558004,"byteLength":120},{"buffer":0,"byteOffset":558124,"byteLength":160},{"buffer":0,"byteOffset":558284,"byteLength":120},{"buffer":0,"byteOffset":558404,"byteLength":160},{"buffer":0,"byteOffset":558564,"byteLength":120},{"buffer":0,"byteOffset":558684,"byteLength":160},{"buffer":0,"byteOffset":558844,"byteLength":120},{"buffer":0,"byteOffset":558964,"byteLength":160},{"buffer":0,"byteOffset":559124,"byteLength":120},{"buffer":0,"byteOffset":559244,"byteLength":160},{"buffer":0,"byteOffset":559404,"byteLength":120},{"buffer":0,"byteOffset":559524,"byteLength":160},{"buffer":0,"byteOffset":559684,"byteLength":120},{"buffer":0,"byteOffset":559804,"byteLength":160},{"buffer":0,"byteOffset":559964,"byteLength":120},{"buffer":0,"byteOffset":560084,"byteLength":160},{"buffer":0,"byteOffset":560244,"byteLength":120},{"buffer":0,"byteOffset":560364,"byteLength":160}],"buffers":[{"uri":"v_gaobao_viewmodel.bin","byteLength":560524}],"animations":[{"name":"idle","samplers":[{"input":91,"output":92,"interpolation":"LINEAR"},{"input":91,"output":93,"interpolation":"LINEAR"},{"input":91,"output":94,"interpolation":"LINEAR"},{"input":91,"output":95,"interpolation":"LINEAR"},{"input":91,"output":96,"interpolation":"LINEAR"},{"input":91,"output":97,"interpolation":"LINEAR"},{"input":91,"output":98,"interpolation":"LINEAR"},{"input":91,"output":99,"interpolation":"LINEAR"},{"input":91,"output":100,"interpolation":"LINEAR"},{"input":91,"output":101,"interpolation":"LINEAR"},{"input":91,"output":102,"interpolation":"LINEAR"},{"input":91,"output":103,"interpolation":"LINEAR"},{"input":91,"output":104,"interpolation":"LINEAR"},{"input":91,"output":105,"interpolation":"LINEAR"},{"input":91,"output":106,"interpolation":"LINEAR"},{"input":91,"output":107,"interpolation":"LINEAR"},{"input":91,"output":108,"interpolation":"LINEAR"},{"input":91,"output":109,"interpolation":"LINEAR"},{"input":91,"output":110,"interpolation":"LINEAR"},{"input":91,"output":111,"interpolation":"LINEAR"},{"input":91,"output":112,"interpolation":"LINEAR"},{"input":91,"output":113,"interpolation":"LINEAR"},{"input":91,"output":114,"interpolation":"LINEAR"},{"input":91,"output":115,"interpolation":"LINEAR"},{"input":91,"output":116,"interpolation":"LINEAR"},{"input":91,"output":117,"interpolation":"LINEAR"},{"input":91,"output":118,"interpolation":"LINEAR"},{"input":91,"output":119,"interpolation":"LINEAR"},{"input":91,"output":120,"interpolation":"LINEAR"},{"input":91,"output":121,"interpolation":"LINEAR"},{"input":91,"output":122,"interpolation":"LINEAR"},{"input":91,"output":123,"interpolation":"LINEAR"},{"input":91,"output":124,"interpolation":"LINEAR"},{"input":91,"output":125,"interpolation":"LINEAR"},{"input":91,"output":126,"interpolation":"LINEAR"},{"input":91,"output":127,"interpolation":"LINEAR"},{"input":91,"output":128,"interpolation":"LINEAR"},{"input":91,"output":129,"interpolation":"LINEAR"},{"input":91,"output":130,"interpolation":"LINEAR"},{"input":91,"output":131,"interpolation":"LINEAR"},{"input":91,"output":132,"interpolation":"LINEAR"},{"input":91,"output":133,"interpolation":"LINEAR"},{"input":91,"output":134,"interpolation":"LINEAR"},{"input":91,"output":135,"interpolation":"LINEAR"},{"input":91,"output":136,"interpolation":"LINEAR"},{"input":91,"output":137,"interpolation":"LINEAR"},{"input":91,"output":138,"interpolation":"LINEAR"},{"input":91,"output":139,"interpolation":"LINEAR"},{"input":91,"output":140,"interpolation":"LINEAR"},{"input":91,"output":141,"interpolation":"LINEAR"},{"input":91,"output":142,"interpolation":"LINEAR"},{"input":91,"output":143,"interpolation":"LINEAR"},{"input":91,"output":144,"interpolation":"LINEAR"},{"input":91,"output":145,"interpolation":"LINEAR"},{"input":91,"output":146,"interpolation":"LINEAR"},{"input":91,"output":147,"interpolation":"LINEAR"},{"input":91,"output":148,"interpolation":"LINEAR"},{"input":91,"output":149,"interpolation":"LINEAR"},{"input":91,"output":150,"interpolation":"LINEAR"},{"input":91,"output":151,"interpolation":"LINEAR"},{"input":91,"output":152,"interpolation":"LINEAR"},{"input":91,"output":153,"interpolation":"LINEAR"},{"input":91,"output":154,"interpolation":"LINEAR"},{"input":91,"output":155,"interpolation":"LINEAR"},{"input":91,"output":156,"interpolation":"LINEAR"},{"input":91,"output":157,"interpolation":"LINEAR"},{"input":91,"output":158,"interpolation":"LINEAR"},{"input":91,"output":159,"interpolation":"LINEAR"},{"input":91,"output":160,"interpolation":"LINEAR"},{"input":91,"output":161,"interpolation":"LINEAR"},{"input":91,"output":162,"interpolation":"LINEAR"},{"input":91,"output":163,"interpolation":"LINEAR"},{"input":91,"output":164,"interpolation":"LINEAR"},{"input":91,"output":165,"interpolation":"LINEAR"},{"input":91,"output":166,"interpolation":"LINEAR"},{"input":91,"output":167,"interpolation":"LINEAR"},{"input":91,"output":168,"interpolation":"LINEAR"},{"input":91,"output":169,"interpolation":"LINEAR"},{"input":91,"output":170,"interpolation":"LINEAR"},{"input":91,"output":171,"interpolation":"LINEAR"}],"channels":[{"sampler":0,"target":{"node":0,"path":"translation"}},{"sampler":1,"target":{"node":0,"path":"rotation"}},{"sampler":2,"target":{"node":1,"path":"translation"}},{"sampler":3,"target":{"node":1,"path":"rotation"}},{"sampler":4,"target":{"node":2,"path":"translation"}},{"sampler":5,"target":{"node":2,"path":"rotation"}},{"sampler":6,"target":{"node":3,"path":"translation"}},{"sampler":7,"target":{"node":3,"path":"rotation"}},{"sampler":8,"target":{"node":4,"path":"translation"}},{"sampler":9,"target":{"node":4,"path":"rotation"}},{"sampler":10,"target":{"node":5,"path":"translation"}},{"sampler":11,"target":{"node":5,"path":"rotation"}},{"sampler":12,"target":{"node":6,"path":"translation"}},{"sampler":13,"target":{"node":6,"path":"rotation"}},{"sampler":14,"target":{"node":7,"path":"translation"}},{"sampler":15,"target":{"node":7,"path":"rotation"}},{"sampler":16,"target":{"node":8,"path":"translation"}},{"sampler":17,"target":{"node":8,"path":"rotation"}},{"sampler":18,"target":{"node":9,"path":"translation"}},{"sampler":19,"target":{"node":9,"path":"rotation"}},{"sampler":20,"target":{"node":10,"path":"translation"}},{"sampler":21,"target":{"node":10,"path":"rotation"}},{"sampler":22,"target":{"node":11,"path":"translation"}},{"sampler":23,"target":{"node":11,"path":"rotation"}},{"sampler":24,"target":{"node":12,"path":"translation"}},{"sampler":25,"target":{"node":12,"path":"rotation"}},{"sampler":26,"target":{"node":13,"path":"translation"}},{"sampler":27,"target":{"node":13,"path":"rotation"}},{"sampler":28,"target":{"node":14,"path":"translation"}},{"sampler":29,"target":{"node":14,"path":"rotation"}},{"sampler":30,"target":{"node":15,"path":"translation"}},{"sampler":31,"target":{"node":15,"path":"rotation"}},{"sampler":32,"target":{"node":16,"path":"translation"}},{"sampler":33,"target":{"node":16,"path":"rotation"}},{"sampler":34,"target":{"node":17,"path":"translation"}},{"sampler":35,"target":{"node":17,"path":"rotation"}},{"sampler":36,"target":{"node":18,"path":"translation"}},{"sampler":37,"target":{"node":18,"path":"rotation"}},{"sampler":38,"target":{"node":19,"path":"translation"}},{"sampler":39,"target":{"node":19,"path":"rotation"}},{"sampler":40,"target":{"node":20,"path":"translation"}},{"sampler":41,"target":{"node":20,"path":"rotation"}},{"sampler":42,"target":{"node":21,"path":"translation"}},{"sampler":43,"target":{"node":21,"path":"rotation"}},{"sampler":44,"target":{"node":22,"path":"translation"}},{"sampler":45,"target":{"node":22,"path":"rotation"}},{"sampler":46,"target":{"node":23,"path":"translation"}},{"sampler":47,"target":{"node":23,"path":"rotation"}},{"sampler":48,"target":{"node":24,"path":"translation"}},{"sampler":49,"target":{"node":24,"path":"rotation"}},{"sampler":50,"target":{"node":25,"path":"translation"}},{"sampler":51,"target":{"node":25,"path":"rotation"}},{"sampler":52,"target":{"node":26,"path":"translation"}},{"sampler":53,"target":{"node":26,"path":"rotation"}},{"sampler":54,"target":{"node":27,"path":"translation"}},{"sampler":55,"target":{"node":27,"path":"rotation"}},{"sampler":56,"target":{"node":28,"path":"translation"}},{"sampler":57,"target":{"node":28,"path":"rotation"}},{"sampler":58,"target":{"node":29,"path":"translation"}},{"sampler":59,"target":{"node":29,"path":"rotation"}},{"sampler":60,"target":{"node":30,"path":"translation"}},{"sampler":61,"target":{"node":30,"path":"rotation"}},{"sampler":62,"target":{"node":31,"path":"translation"}},{"sampler":63,"target":{"node":31,"path":"rotation"}},{"sampler":64,"target":{"node":32,"path":"translation"}},{"sampler":65,"target":{"node":32,"path":"rotation"}},{"sampler":66,"target":{"node":33,"path":"translation"}},{"sampler":67,"target":{"node":33,"path":"rotation"}},{"sampler":68,"target":{"node":34,"path":"translation"}},{"sampler":69,"target":{"node":34,"path":"rotation"}},{"sampler":70,"target":{"node":35,"path":"translation"}},{"sampler":71,"target":{"node":35,"path":"rotation"}},{"sampler":72,"target":{"node":36,"path":"translation"}},{"sampler":73,"target":{"node":36,"path":"rotation"}},{"sampler":74,"target":{"node":37,"path":"translation"}},{"sampler":75,"target":{"node":37,"path":"rotation"}},{"sampler":76,"target":{"node":38,"path":"translation"}},{"sampler":77,"target":{"node":38,"path":"rotation"}},{"sampler":78,"target":{"node":39,"path":"translation"}},{"sampler":79,"target":{"node":39,"path":"rotation"}}]},{"name":"plugin","samplers":[{"input":172,"output":173,"interpolation":"LINEAR"},{"input":172,"output":174,"interpolation":"LINEAR"},{"input":172,"output":175,"interpolation":"LINEAR"},{"input":172,"output":176,"interpolation":"LINEAR"},{"input":172,"output":177,"interpolation":"LINEAR"},{"input":172,"output":178,"interpolation":"LINEAR"},{"input":172,"output":179,"interpolation":"LINEAR"},{"input":172,"output":180,"interpolation":"LINEAR"},{"input":172,"output":181,"interpolation":"LINEAR"},{"input":172,"output":182,"interpolation":"LINEAR"},{"input":172,"output":183,"interpolation":"LINEAR"},{"input":172,"output":184,"interpolation":"LINEAR"},{"input":172,"output":185,"interpolation":"LINEAR"},{"input":172,"output":186,"interpolation":"LINEAR"},{"input":172,"output":187,"interpolation":"LINEAR"},{"input":172,"output":188,"interpolation":"LINEAR"},{"input":172,"output":189,"interpolation":"LINEAR"},{"input":172,"output":190,"interpolation":"LINEAR"},{"input":172,"output":191,"interpolation":"LINEAR"},{"input":172,"output":192,"interpolation":"LINEAR"},{"input":172,"output":193,"interpolation":"LINEAR"},{"input":172,"output":194,"interpolation":"LINEAR"},{"input":172,"output":195,"interpolation":"LINEAR"},{"input":172,"output":196,"interpolation":"LINEAR"},{"input":172,"output":197,"interpolation":"LINEAR"},{"input":172,"output":198,"interpolation":"LINEAR"},{"input":172,"output":199,"interpolation":"LINEAR"},{"input":172,"output":200,"interpolation":"LINEAR"},{"input":172,"output":201,"interpolation":"LINEAR"},{"input":172,"output":202,"interpolation":"LINEAR"},{"input":172,"output":203,"interpolation":"LINEAR"},{"input":172,"output":204,"interpolation":"LINEAR"},{"input":172,"output":205,"interpolation":"LINEAR"},{"input":172,"output":206,"interpolation":"LINEAR"},{"input":172,"output":207,"interpolation":"LINEAR"},{"input":172,"output":208,"interpolation":"LINEAR"},{"input":172,"output":209,"interpolation":"LINEAR"},{"input":172,"output":210,"interpolation":"LINEAR"},{"input":172,"output":211,"interpolation":"LINEAR"},{"input":172,"output":212,"interpolation":"LINEAR"},{"input":172,"output":213,"interpolation":"LINEAR"},{"input":172,"output":214,"interpolation":"LINEAR"},{"input":172,"output":215,"interpolation":"LINEAR"},{"input":172,"output":216,"interpolation":"LINEAR"},{"input":172,"output":217,"interpolation":"LINEAR"},{"input":172,"output":218,"interpolation":"LINEAR"},{"input":172,"output":219,"interpolation":"LINEAR"},{"input":172,"output":220,"interpolation":"LINEAR"},{"input":172,"output":221,"interpolation":"LINEAR"},{"input":172,"output":222,"interpolation":"LINEAR"},{"input":172,"output":223,"interpolation":"LINEAR"},{"input":172,"output":224,"interpolation":"LINEAR"},{"input":172,"output":225,"interpolation":"LINEAR"},{"input":172,"output":226,"interpolation":"LINEAR"},{"input":172,"output":227,"interpolation":"LINEAR"},{"input":172,"output":228,"interpolation":"LINEAR"},{"input":172,"output":229,"interpolation":"LINEAR"},{"input":172,"output":230,"interpolation":"LINEAR"},{"input":172,"output":231,"interpolation":"LINEAR"},{"input":172,"output":232,"interpolation":"LINEAR"},{"input":172,"output":233,"interpolation":"LINEAR"},{"input":172,"output":234,"interpolation":"LINEAR"},{"input":172,"output":235,"interpolation":"LINEAR"},{"input":172,"output":236,"interpolation":"LINEAR"},{"input":172,"output":237,"interpolation":"LINEAR"},{"input":172,"output":238,"interpolation":"LINEAR"},{"input":172,"output":239,"interpolation":"LINEAR"},{"input":172,"output":240,"interpolation":"LINEAR"},{"input":172,"output":241,"interpolation":"LINEAR"},{"input":172,"output":242,"interpolation":"LINEAR"},{"input":172,"output":243,"interpolation":"LINEAR"},{"input":172,"output":244,"interpolation":"LINEAR"},{"input":172,"output":245,"interpolation":"LINEAR"},{"input":172,"output":246,"interpolation":"LINEAR"},{"input":172,"output":247,"interpolation":"LINEAR"},{"input":172,"output":248,"interpolation":"LINEAR"},{"input":172,"output":249,"interpolation":"LINEAR"},{"input":172,"output":250,"interpolation":"LINEAR"},{"input":172,"output":251,"interpolation":"LINEAR"},{"input":172,"output":252,"interpolation":"LINEAR"}],"channels":[{"sampler":0,"target":{"node":0,"path":"translation"}},{"sampler":1,"target":{"node":0,"path":"rotation"}},{"sampler":2,"target":{"node":1,"path":"translation"}},{"sampler":3,"target":{"node":1,"path":"rotation"}},{"sampler":4,"target":{"node":2,"path":"translation"}},{"sampler":5,"target":{"node":2,"path":"rotation"}},{"sampler":6,"target":{"node":3,"path":"translation"}},{"sampler":7,"target":{"node":3,"path":"rotation"}},{"sampler":8,"target":{"node":4,"path":"translation"}},{"sampler":9,"target":{"node":4,"path":"rotation"}},{"sampler":10,"target":{"node":5,"path":"translation"}},{"sampler":11,"target":{"node":5,"path":"rotation"}},{"sampler":12,"target":{"node":6,"path":"translation"}},{"sampler":13,"target":{"node":6,"path":"rotation"}},{"sampler":14,"target":{"node":7,"path":"translation"}},{"sampler":15,"target":{"node":7,"path":"rotation"}},{"sampler":16,"target":{"node":8,"path":"translation"}},{"sampler":17,"target":{"node":8,"path":"rotation"}},{"sampler":18,"target":{"node":9,"path":"translation"}},{"sampler":19,"target":{"node":9,"path":"rotation"}},{"sampler":20,"target":{"node":10,"path":"translation"}},{"sampler":21,"target":{"node":10,"path":"rotation"}},{"sampler":22,"target":{"node":11,"path":"translation"}},{"sampler":23,"target":{"node":11,"path":"rotation"}},{"sampler":24,"target":{"node":12,"path":"translation"}},{"sampler":25,"target":{"node":12,"path":"rotation"}},{"sampler":26,"target":{"node":13,"path":"translation"}},{"sampler":27,"target":{"node":13,"path":"rotation"}},{"sampler":28,"target":{"node":14,"path":"translation"}},{"sampler":29,"target":{"node":14,"path":"rotation"}},{"sampler":30,"target":{"node":15,"path":"translation"}},{"sampler":31,"target":{"node":15,"path":"rotation"}},{"sampler":32,"target":{"node":16,"path":"translation"}},{"sampler":33,"target":{"node":16,"path":"rotation"}},{"sampler":34,"target":{"node":17,"path":"translation"}},{"sampler":35,"target":{"node":17,"path":"rotation"}},{"sampler":36,"target":{"node":18,"path":"translation"}},{"sampler":37,"target":{"node":18,"path":"rotation"}},{"sampler":38,"target":{"node":19,"path":"translation"}},{"sampler":39,"target":{"node":19,"path":"rotation"}},{"sampler":40,"target":{"node":20,"path":"translation"}},{"sampler":41,"target":{"node":20,"path":"rotation"}},{"sampler":42,"target":{"node":21,"path":"translation"}},{"sampler":43,"target":{"node":21,"path":"rotation"}},{"sampler":44,"target":{"node":22,"path":"translation"}},{"sampler":45,"target":{"node":22,"path":"rotation"}},{"sampler":46,"target":{"node":23,"path":"translation"}},{"sampler":47,"target":{"node":23,"path":"rotation"}},{"sampler":48,"target":{"node":24,"path":"translation"}},{"sampler":49,"target":{"node":24,"path":"rotation"}},{"sampler":50,"target":{"node":25,"path":"translation"}},{"sampler":51,"target":{"node":25,"path":"rotation"}},{"sampler":52,"target":{"node":26,"path":"translation"}},{"sampler":53,"target":{"node":26,"path":"rotation"}},{"sampler":54,"target":{"node":27,"path":"translation"}},{"sampler":55,"target":{"node":27,"path":"rotation"}},{"sampler":56,"target":{"node":28,"path":"translation"}},{"sampler":57,"target":{"node":28,"path":"rotation"}},{"sampler":58,"target":{"node":29,"path":"translation"}},{"sampler":59,"target":{"node":29,"path":"rotation"}},{"sampler":60,"target":{"node":30,"path":"translation"}},{"sampler":61,"target":{"node":30,"path":"rotation"}},{"sampler":62,"target":{"node":31,"path":"translation"}},{"sampler":63,"target":{"node":31,"path":"rotation"}},{"sampler":64,"target":{"node":32,"path":"translation"}},{"sampler":65,"target":{"node":32,"path":"rotation"}},{"sampler":66,"target":{"node":33,"path":"translation"}},{"sampler":67,"target":{"node":33,"path":"rotation"}},{"sampler":68,"target":{"node":34,"path":"translation"}},{"sampler":69,"target":{"node":34,"path":"rotation"}},{"sampler":70,"target":{"node":35,"path":"translation"}},{"sampler":71,"target":{"node":35,"path":"rotation"}},{"sampler":72,"target":{"node":36,"path":"translation"}},{"sampler":73,"target":{"node":36,"path":"rotation"}},{"sampler":74,"target":{"node":37,"path":"translation"}},{"sampler":75,"target":{"node":37,"path":"rotation"}},{"sampler":76,"target":{"node":38,"path":"translation"}},{"sampler":77,"target":{"node":38,"path":"rotation"}},{"sampler":78,"target":{"node":39,"path":"translation"}},{"sampler":79,"target":{"node":39,"path":"rotation"}}]},{"name":"Throw","samplers":[{"input":253,"output":254,"interpolation":"LINEAR"},{"input":253,"output":255,"interpolation":"LINEAR"},{"input":253,"output":256,"interpolation":"LINEAR"},{"input":253,"output":257,"interpolation":"LINEAR"},{"input":253,"output":258,"interpolation":"LINEAR"},{"input":253,"output":259,"interpolation":"LINEAR"},{"input":253,"output":260,"interpolation":"LINEAR"},{"input":253,"output":261,"interpolation":"LINEAR"},{"input":253,"output":262,"interpolation":"LINEAR"},{"input":253,"output":263,"interpolation":"LINEAR"},{"input":253,"output":264,"interpolation":"LINEAR"},{"input":253,"output":265,"interpolation":"LINEAR"},{"input":253,"output":266,"interpolation":"LINEAR"},{"input":253,"output":267,"interpolation":"LINEAR"},{"input":253,"output":268,"interpolation":"LINEAR"},{"input":253,"output":269,"interpolation":"LINEAR"},{"input":253,"output":270,"interpolation":"LINEAR"},{"input":253,"output":271,"interpolation":"LINEAR"},{"input":253,"output":272,"interpolation":"LINEAR"},{"input":253,"output":273,"interpolation":"LINEAR"},{"input":253,"output":274,"interpolation":"LINEAR"},{"input":253,"output":275,"interpolation":"LINEAR"},{"input":253,"output":276,"interpolation":"LINEAR"},{"input":253,"output":277,"interpolation":"LINEAR"},{"input":253,"output":278,"interpolation":"LINEAR"},{"input":253,"output":279,"interpolation":"LINEAR"},{"input":253,"output":280,"interpolation":"LINEAR"},{"input":253,"output":281,"interpolation":"LINEAR"},{"input":253,"output":282,"interpolation":"LINEAR"},{"input":253,"output":283,"interpolation":"LINEAR"},{"input":253,"output":284,"interpolation":"LINEAR"},{"input":253,"output":285,"interpolation":"LINEAR"},{"input":253,"output":286,"interpolation":"LINEAR"},{"input":253,"output":287,"interpolation":"LINEAR"},{"input":253,"output":288,"interpolation":"LINEAR"},{"input":253,"output":289,"interpolation":"LINEAR"},{"input":253,"output":290,"interpolation":"LINEAR"},{"input":253,"output":291,"interpolation":"LINEAR"},{"input":253,"output":292,"interpolation":"LINEAR"},{"input":253,"output":293,"interpolation":"LINEAR"},{"input":253,"output":294,"interpolation":"LINEAR"},{"input":253,"output":295,"interpolation":"LINEAR"},{"input":253,"output":296,"interpolation":"LINEAR"},{"input":253,"output":297,"interpolation":"LINEAR"},{"input":253,"output":298,"interpolation":"LINEAR"},{"input":253,"output":299,"interpolation":"LINEAR"},{"input":253,"output":300,"interpolation":"LINEAR"},{"input":253,"output":301,"interpolation":"LINEAR"},{"input":253,"output":302,"interpolation":"LINEAR"},{"input":253,"output":303,"interpolation":"LINEAR"},{"input":253,"output":304,"interpolation":"LINEAR"},{"input":253,"output":305,"interpolation":"LINEAR"},{"input":253,"output":306,"interpolation":"LINEAR"},{"input":253,"output":307,"interpolation":"LINEAR"},{"input":253,"output":308,"interpolation":"LINEAR"},{"input":253,"output":309,"interpolation":"LINEAR"},{"input":253,"output":310,"interpolation":"LINEAR"},{"input":253,"output":311,"interpolation":"LINEAR"},{"input":253,"output":312,"interpolation":"LINEAR"},{"input":253,"output":313,"interpolation":"LINEAR"},{"input":253,"output":314,"interpolation":"LINEAR"},{"input":253,"output":315,"interpolation":"LINEAR"},{"input":253,"output":316,"interpolation":"LINEAR"},{"input":253,"output":317,"interpolation":"LINEAR"},{"input":253,"output":318,"interpolation":"LINEAR"},{"input":253,"output":319,"interpolation":"LINEAR"},{"input":253,"output":320,"interpolation":"LINEAR"},{"input":253,"output":321,"interpolation":"LINEAR"},{"input":253,"output":322,"interpolation":"LINEAR"},{"input":253,"output":323,"interpolation":"LINEAR"},{"input":253,"output":324,"interpolation":"LINEAR"},{"input":253,"output":325,"interpolation":"LINEAR"},{"input":253,"output":326,"interpolation":"LINEAR"},{"input":253,"output":327,"interpolation":"LINEAR"},{"input":253,"output":328,"interpolation":"LINEAR"},{"input":253,"output":329,"interpolation":"LINEAR"},{"input":253,"output":330,"interpolation":"LINEAR"},{"input":253,"output":331,"interpolation":"LINEAR"},{"input":253,"output":332,"interpolation":"LINEAR"},{"input":253,"output":333,"interpolation":"LINEAR"}],"channels":[{"sampler":0,"target":{"node":0,"path":"translation"}},{"sampler":1,"target":{"node":0,"path":"rotation"}},{"sampler":2,"target":{"node":1,"path":"translation"}},{"sampler":3,"target":{"node":1,"path":"rotation"}},{"sampler":4,"target":{"node":2,"path":"translation"}},{"sampler":5,"target":{"node":2,"path":"rotation"}},{"sampler":6,"target":{"node":3,"path":"translation"}},{"sampler":7,"target":{"node":3,"path":"rotation"}},{"sampler":8,"target":{"node":4,"path":"translation"}},{"sampler":9,"target":{"node":4,"path":"rotation"}},{"sampler":10,"target":{"node":5,"path":"translation"}},{"sampler":11,"target":{"node":5,"path":"rotation"}},{"sampler":12,"target":{"node":6,"path":"translation"}},{"sampler":13,"target":{"node":6,"path":"rotation"}},{"sampler":14,"target":{"node":7,"path":"translation"}},{"sampler":15,"target":{"node":7,"path":"rotation"}},{"sampler":16,"target":{"node":8,"path":"translation"}},{"sampler":17,"target":{"node":8,"path":"rotation"}},{"sampler":18,"target":{"node":9,"path":"translation"}},{"sampler":19,"target":{"node":9,"path":"rotation"}},{"sampler":20,"target":{"node":10,"path":"translation"}},{"sampler":21,"target":{"node":10,"path":"rotation"}},{"sampler":22,"target":{"node":11,"path":"translation"}},{"sampler":23,"target":{"node":11,"path":"rotation"}},{"sampler":24,"target":{"node":12,"path":"translation"}},{"sampler":25,"target":{"node":12,"path":"rotation"}},{"sampler":26,"target":{"node":13,"path":"translation"}},{"sampler":27,"target":{"node":13,"path":"rotation"}},{"sampler":28,"target":{"node":14,"path":"translation"}},{"sampler":29,"target":{"node":14,"path":"rotation"}},{"sampler":30,"target":{"node":15,"path":"translation"}},{"sampler":31,"target":{"node":15,"path":"rotation"}},{"sampler":32,"target":{"node":16,"path":"translation"}},{"sampler":33,"target":{"node":16,"path":"rotation"}},{"sampler":34,"target":{"node":17,"path":"translation"}},{"sampler":35,"target":{"node":17,"path":"rotation"}},{"sampler":36,"target":{"node":18,"path":"translation"}},{"sampler":37,"target":{"node":18,"path":"rotation"}},{"sampler":38,"target":{"node":19,"path":"translation"}},{"sampler":39,"target":{"node":19,"path":"rotation"}},{"sampler":40,"target":{"node":20,"path":"translation"}},{"sampler":41,"target":{"node":20,"path":"rotation"}},{"sampler":42,"target":{"node":21,"path":"translation"}},{"sampler":43,"target":{"node":21,"path":"rotation"}},{"sampler":44,"target":{"node":22,"path":"translation"}},{"sampler":45,"target":{"node":22,"path":"rotation"}},{"sampler":46,"target":{"node":23,"path":"translation"}},{"sampler":47,"target":{"node":23,"path":"rotation"}},{"sampler":48,"target":{"node":24,"path":"translation"}},{"sampler":49,"target":{"node":24,"path":"rotation"}},{"sampler":50,"target":{"node":25,"path":"translation"}},{"sampler":51,"target":{"node":25,"path":"rotation"}},{"sampler":52,"target":{"node":26,"path":"translation"}},{"sampler":53,"target":{"node":26,"path":"rotation"}},{"sampler":54,"target":{"node":27,"path":"translation"}},{"sampler":55,"target":{"node":27,"path":"rotation"}},{"sampler":56,"target":{"node":28,"path":"translation"}},{"sampler":57,"target":{"node":28,"path":"rotation"}},{"sampler":58,"target":{"node":29,"path":"translation"}},{"sampler":59,"target":{"node":29,"path":"rotation"}},{"sampler":60,"target":{"node":30,"path":"translation"}},{"sampler":61,"target":{"node":30,"path":"rotation"}},{"sampler":62,"target":{"node":31,"path":"translation"}},{"sampler":63,"target":{"node":31,"path":"rotation"}},{"sampler":64,"target":{"node":32,"path":"translation"}},{"sampler":65,"target":{"node":32,"path":"rotation"}},{"sampler":66,"target":{"node":33,"path":"translation"}},{"sampler":67,"target":{"node":33,"path":"rotation"}},{"sampler":68,"target":{"node":34,"path":"translation"}},{"sampler":69,"target":{"node":34,"path":"rotation"}},{"sampler":70,"target":{"node":35,"path":"translation"}},{"sampler":71,"target":{"node":35,"path":"rotation"}},{"sampler":72,"target":{"node":36,"path":"translation"}},{"sampler":73,"target":{"node":36,"path":"rotation"}},{"sampler":74,"target":{"node":37,"path":"translation"}},{"sampler":75,"target":{"node":37,"path":"rotation"}},{"sampler":76,"target":{"node":38,"path":"translation"}},{"sampler":77,"target":{"node":38,"path":"rotation"}},{"sampler":78,"target":{"node":39,"path":"translation"}},{"sampler":79,"target":{"node":39,"path":"rotation"}}]},{"name":"draw","samplers":[{"input":334,"output":335,"interpolation":"LINEAR"},{"input":334,"output":336,"interpolation":"LINEAR"},{"input":334,"output":337,"interpolation":"LINEAR"},{"input":334,"output":338,"interpolation":"LINEAR"},{"input":334,"output":339,"interpolation":"LINEAR"},{"input":334,"output":340,"interpolation":"LINEAR"},{"input":334,"output":341,"interpolation":"LINEAR"},{"input":334,"output":342,"interpolation":"LINEAR"},{"input":334,"output":343,"interpolation":"LINEAR"},{"input":334,"output":344,"interpolation":"LINEAR"},{"input":334,"output":345,"interpolation":"LINEAR"},{"input":334,"output":346,"interpolation":"LINEAR"},{"input":334,"output":347,"interpolation":"LINEAR"},{"input":334,"output":348,"interpolation":"LINEAR"},{"input":334,"output":349,"interpolation":"LINEAR"},{"input":334,"output":350,"interpolation":"LINEAR"},{"input":334,"output":351,"interpolation":"LINEAR"},{"input":334,"output":352,"interpolation":"LINEAR"},{"input":334,"output":353,"interpolation":"LINEAR"},{"input":334,"output":354,"interpolation":"LINEAR"},{"input":334,"output":355,"interpolation":"LINEAR"},{"input":334,"output":356,"interpolation":"LINEAR"},{"input":334,"output":357,"interpolation":"LINEAR"},{"input":334,"output":358,"interpolation":"LINEAR"},{"input":334,"output":359,"interpolation":"LINEAR"},{"input":334,"output":360,"interpolation":"LINEAR"},{"input":334,"output":361,"interpolation":"LINEAR"},{"input":334,"output":362,"interpolation":"LINEAR"},{"input":334,"output":363,"interpolation":"LINEAR"},{"input":334,"output":364,"interpolation":"LINEAR"},{"input":334,"output":365,"interpolation":"LINEAR"},{"input":334,"output":366,"interpolation":"LINEAR"},{"input":334,"output":367,"interpolation":"LINEAR"},{"input":334,"output":368,"interpolation":"LINEAR"},{"input":334,"output":369,"interpolation":"LINEAR"},{"input":334,"output":370,"interpolation":"LINEAR"},{"input":334,"output":371,"interpolation":"LINEAR"},{"input":334,"output":372,"interpolation":"LINEAR"},{"input":334,"output":373,"interpolation":"LINEAR"},{"input":334,"output":374,"interpolation":"LINEAR"},{"input":334,"output":375,"interpolation":"LINEAR"},{"input":334,"output":376,"interpolation":"LINEAR"},{"input":334,"output":377,"interpolation":"LINEAR"},{"input":334,"output":378,"interpolation":"LINEAR"},{"input":334,"output":379,"interpolation":"LINEAR"},{"input":334,"output":380,"interpolation":"LINEAR"},{"input":334,"output":381,"interpolation":"LINEAR"},{"input":334,"output":382,"interpolation":"LINEAR"},{"input":334,"output":383,"interpolation":"LINEAR"},{"input":334,"output":384,"interpolation":"LINEAR"},{"input":334,"output":385,"interpolation":"LINEAR"},{"input":334,"output":386,"interpolation":"LINEAR"},{"input":334,"output":387,"interpolation":"LINEAR"},{"input":334,"output":388,"interpolation":"LINEAR"},{"input":334,"output":389,"interpolation":"LINEAR"},{"input":334,"output":390,"interpolation":"LINEAR"},{"input":334,"output":391,"interpolation":"LINEAR"},{"input":334,"output":392,"interpolation":"LINEAR"},{"input":334,"output":393,"interpolation":"LINEAR"},{"input":334,"output":394,"interpolation":"LINEAR"},{"input":334,"output":395,"interpolation":"LINEAR"},{"input":334,"output":396,"interpolation":"LINEAR"},{"input":334,"output":397,"interpolation":"LINEAR"},{"input":334,"output":398,"interpolation":"LINEAR"},{"input":334,"output":399,"interpolation":"LINEAR"},{"input":334,"output":400,"interpolation":"LINEAR"},{"input":334,"output":401,"interpolation":"LINEAR"},{"input":334,"output":402,"interpolation":"LINEAR"},{"input":334,"output":403,"interpolation":"LINEAR"},{"input":334,"output":404,"interpolation":"LINEAR"},{"input":334,"output":405,"interpolation":"LINEAR"},{"input":334,"output":406,"interpolation":"LINEAR"},{"input":334,"output":407,"interpolation":"LINEAR"},{"input":334,"output":408,"interpolation":"LINEAR"},{"input":334,"output":409,"interpolation":"LINEAR"},{"input":334,"output":410,"interpolation":"LINEAR"},{"input":334,"output":411,"interpolation":"LINEAR"},{"input":334,"output":412,"interpolation":"LINEAR"},{"input":334,"output":413,"interpolation":"LINEAR"},{"input":334,"output":414,"interpolation":"LINEAR"}],"channels":[{"sampler":0,"target":{"node":0,"path":"translation"}},{"sampler":1,"target":{"node":0,"path":"rotation"}},{"sampler":2,"target":{"node":1,"path":"translation"}},{"sampler":3,"target":{"node":1,"path":"rotation"}},{"sampler":4,"target":{"node":2,"path":"translation"}},{"sampler":5,"target":{"node":2,"path":"rotation"}},{"sampler":6,"target":{"node":3,"path":"translation"}},{"sampler":7,"target":{"node":3,"path":"rotation"}},{"sampler":8,"target":{"node":4,"path":"translation"}},{"sampler":9,"target":{"node":4,"path":"rotation"}},{"sampler":10,"target":{"node":5,"path":"translation"}},{"sampler":11,"target":{"node":5,"path":"rotation"}},{"sampler":12,"target":{"node":6,"path":"translation"}},{"sampler":13,"target":{"node":6,"path":"rotation"}},{"sampler":14,"target":{"node":7,"path":"translation"}},{"sampler":15,"target":{"node":7,"path":"rotation"}},{"sampler":16,"target":{"node":8,"path":"translation"}},{"sampler":17,"target":{"node":8,"path":"rotation"}},{"sampler":18,"target":{"node":9,"path":"translation"}},{"sampler":19,"target":{"node":9,"path":"rotation"}},{"sampler":20,"target":{"node":10,"path":"translation"}},{"sampler":21,"target":{"node":10,"path":"rotation"}},{"sampler":22,"target":{"node":11,"path":"translation"}},{"sampler":23,"target":{"node":11,"path":"rotation"}},{"sampler":24,"target":{"node":12,"path":"translation"}},{"sampler":25,"target":{"node":12,"path":"rotation"}},{"sampler":26,"target":{"node":13,"path":"translation"}},{"sampler":27,"target":{"node":13,"path":"rotation"}},{"sampler":28,"target":{"node":14,"path":"translation"}},{"sampler":29,"target":{"node":14,"path":"rotation"}},{"sampler":30,"target":{"node":15,"path":"translation"}},{"sampler":31,"target":{"node":15,"path":"rotation"}},{"sampler":32,"target":{"node":16,"path":"translation"}},{"sampler":33,"target":{"node":16,"path":"rotation"}},{"sampler":34,"target":{"node":17,"path":"translation"}},{"sampler":35,"target":{"node":17,"path":"rotation"}},{"sampler":36,"target":{"node":18,"path":"translation"}},{"sampler":37,"target":{"node":18,"path":"rotation"}},{"sampler":38,"target":{"node":19,"path":"translation"}},{"sampler":39,"target":{"node":19,"path":"rotation"}},{"sampler":40,"target":{"node":20,"path":"translation"}},{"sampler":41,"target":{"node":20,"path":"rotation"}},{"sampler":42,"target":{"node":21,"path":"translation"}},{"sampler":43,"target":{"node":21,"path":"rotation"}},{"sampler":44,"target":{"node":22,"path":"translation"}},{"sampler":45,"target":{"node":22,"path":"rotation"}},{"sampler":46,"target":{"node":23,"path":"translation"}},{"sampler":47,"target":{"node":23,"path":"rotation"}},{"sampler":48,"target":{"node":24,"path":"translation"}},{"sampler":49,"target":{"node":24,"path":"rotation"}},{"sampler":50,"target":{"node":25,"path":"translation"}},{"sampler":51,"target":{"node":25,"path":"rotation"}},{"sampler":52,"target":{"node":26,"path":"translation"}},{"sampler":53,"target":{"node":26,"path":"rotation"}},{"sampler":54,"target":{"node":27,"path":"translation"}},{"sampler":55,"target":{"node":27,"path":"rotation"}},{"sampler":56,"target":{"node":28,"path":"translation"}},{"sampler":57,"target":{"node":28,"path":"rotation"}},{"sampler":58,"target":{"node":29,"path":"translation"}},{"sampler":59,"target":{"node":29,"path":"rotation"}},{"sampler":60,"target":{"node":30,"path":"translation"}},{"sampler":61,"target":{"node":30,"path":"rotation"}},{"sampler":62,"target":{"node":31,"path":"translation"}},{"sampler":63,"target":{"node":31,"path":"rotation"}},{"sampler":64,"target":{"node":32,"path":"translation"}},{"sampler":65,"target":{"node":32,"path":"rotation"}},{"sampler":66,"target":{"node":33,"path":"translation"}},{"sampler":67,"target":{"node":33,"path":"rotation"}},{"sampler":68,"target":{"node":34,"path":"translation"}},{"sampler":69,"target":{"node":34,"path":"rotation"}},{"sampler":70,"target":{"node":35,"path":"translation"}},{"sampler":71,"target":{"node":35,"path":"rotation"}},{"sampler":72,"target":{"node":36,"path":"translation"}},{"sampler":73,"target":{"node":36,"path":"rotation"}},{"sampler":74,"target":{"node":37,"path":"translation"}},{"sampler":75,"target":{"node":37,"path":"rotation"}},{"sampler":76,"target":{"node":38,"path":"translation"}},{"sampler":77,"target":{"node":38,"path":"rotation"}},{"sampler":78,"target":{"node":39,"path":"translation"}},{"sampler":79,"target":{"node":39,"path":"rotation"}}]}]}