{"asset":{"version":"2.0","generator":"mdl2gltf (GoldSrc->glTF)"},"scene":0,"scenes":[{"nodes":[13,14]}],"nodes":[{"name":"Bip01","translation":[-0.6499999761581421,0.0,33.89960479736328],"rotation":[0.05246926596293168,0.0707772926899632,-0.7029870308400653,0.7057242984618423],"children":[1]},{"name":"Bip01 Pelvis","translation":[-2.27693510055542,3.000000106112566e-06,-1.2381880283355713],"rotation":[-0.5000860019949257,-0.49991398299095224,-0.49991334930499076,0.5000866358997403],"children":[2]},{"name":"Bip01 Spine","translation":[1.7970529794692993,0.711899995803833,0.0008079999824985862],"rotation":[-0.1250262862585569,-0.05233514472146638,-0.0067303302408843815,0.9907492937298644],"children":[3]},{"name":"Bip01 Spine1","translation":[4.119874000549316,-0.00291600008495152,0.0008040000102482736],"rotation":[-0.13052250116632091,0.02154431349730464,0.19611771541333417,0.9716159534230961],"children":[4]},{"name":"Bip01 Spine2","translation":[4.118966102600098,-0.0031530000269412994,0.0008340000058524311],"rotation":[-0.12946737639899594,0.01697481600202592,0.05326388195149702,0.99000657217491],"children":[5]},{"name":"Bip01 Spine3","translation":[4.118617057800293,-0.0031659998930990696,0.0008539999835193157],"rotation":[-0.13131178189087614,0.0043572688138261,0.0016978339980314137,0.9913300900834405],"children":[6]},{"name":"Bip01 Neck","translation":[4.117577075958252,-0.003017999930307269,-0.0015369999455288053],"rotation":[0.2649952830557624,0.348565510389725,-0.058759588416547104,0.8971214498015666],"children":[7]},{"name":"Bip01 R Clavicle","translation":[1.137624979019165,-0.7493299841880798,-1.0683269500732422],"rotation":[0.8375591339799823,-0.023229734525701956,-0.5211411405414832,0.16237914938713516],"children":[8]},{"name":"Bip01 R UpperArm","translation":[6.3847761154174805,-9.999999974752427e-07,9.999999974752427e-07],"rotation":[0.13277638890816304,-0.06843850651251751,-0.5003707922919148,0.8528280433921046],"children":[9]},{"name":"Bip01 R Forearm","translation":[10.242682456970215,0.0,3.000000106112566e-06],"rotation":[0.0,-0.0,-0.8873948026146251,0.4610102648451014],"children":[10]},{"name":"Bip01 R Hand","translation":[11.375561714172363,0.0,-1.9999999949504854e-06],"rotation":[0.9200605142065784,0.30028199125823724,-0.05636979952620459,0.24523829559285779],"children":[11]},{"name":"flash","translation":[35.25238800048828,-1.7880909442901611,-2.8412370681762695],"rotation":[0.7106225958061423,0.041811061156787684,-0.1124130702690857,0.6932753155329857],"children":[12]},{"name":"skin01","translation":[-24.711694717407227,-0.3437980115413666,1.0388380289077759],"rotation":[0.5011209919573125,-0.5153552218536005,-0.4976708758108107,-0.48539720446006496]},{"name":"Armature","rotation":[-0.7071067811865476,0.0,0.0,0.7071067811865476],"scale":[0.0254,0.0254,0.0254],"children":[0]},{"name":"studio__ljk_ak","mesh":0,"skin":0}],"meshes":[{"name":"studio__ljk_ak","primitives":[{"attributes":{"POSITION":0,"NORMAL":1,"TEXCOORD_0":2,"JOINTS_0":3,"WEIGHTS_0":4},"indices":5,"material":0,"mode":4}]}],"skins":[{"name":"AK47_Skin","joints":[0,1,2,3,4,5,6,7,8,9,10,11,12],"inverseBindMatrices":6,"skeleton":13}],"materials":[{"name":"¸´¼þ_QV-M82A1_S_BORNBEAST¸±±¾","pbrMetallicRoughness":{"baseColorTexture":{"index":0},"metallicFactor":0.0,"roughnessFactor":0.75},"doubleSided":false}],"textures":[{"sampler":0,"source":0}],"images":[{"uri":"textures/m82a1_world.png"}],"samplers":[{"magFilter":9729,"minFilter":9987,"wrapS":10497,"wrapT":10497}],"accessors":[{"bufferView":0,"componentType":5126,"count":1224,"type":"VEC3","min":[-14.88731085645557,-49.338819443106345,43.04987681886068],"max":[-2.8809308295802047,-2.105919322776284,56.61892370326952]},{"bufferView":1,"componentType":5126,"count":1224,"type":"VEC3"},{"bufferView":2,"componentType":5126,"count":1224,"type":"VEC2"},{"bufferView":3,"componentType":5123,"count":1224,"type":"VEC4"},{"bufferView":4,"componentType":5126,"count":1224,"type":"VEC4"},{"bufferView":5,"componentType":5125,"count":3492,"type":"SCALAR"},{"bufferView":6,"componentType":5126,"count":13,"type":"MAT4"},{"bufferView":7,"componentType":5126,"count":1,"type":"SCALAR","min":[0.0],"max":[0.0]},{"bufferView":8,"componentType":5126,"count":1,"type":"VEC3"},{"bufferView":9,"componentType":5126,"count":1,"type":"VEC4"},{"bufferView":10,"componentType":5126,"count":1,"type":"VEC3"},{"bufferView":11,"componentType":5126,"count":1,"type":"VEC4"},{"bufferView":12,"componentType":5126,"count":1,"type":"VEC3"},{"bufferView":13,"componentType":5126,"count":1,"type":"VEC4"},{"bufferView":14,"componentType":5126,"count":1,"type":"VEC3"},{"bufferView":15,"componentType":5126,"count":1,"type":"VEC4"},{"bufferView":16,"componentType":5126,"count":1,"type":"VEC3"},{"bufferView":17,"componentType":5126,"count":1,"type":"VEC4"},{"bufferView":18,"componentType":5126,"count":1,"type":"VEC3"},{"bufferView":19,"componentType":5126,"count":1,"type":"VEC4"},{"bufferView":20,"componentType":5126,"count":1,"type":"VEC3"},{"bufferView":21,"componentType":5126,"count":1,"type":"VEC4"},{"bufferView":22,"componentType":5126,"count":1,"type":"VEC3"},{"bufferView":23,"componentType":5126,"count":1,"type":"VEC4"},{"bufferView":24,"componentType":5126,"count":1,"type":"VEC3"},{"bufferView":25,"componentType":5126,"count":1,"type":"VEC4"},{"bufferView":26,"componentType":5126,"count":1,"type":"VEC3"},{"bufferView":27,"componentType":5126,"count":1,"type":"VEC4"},{"bufferView":28,"componentType":5126,"count":1,"type":"VEC3"},{"bufferView":29,"componentType":5126,"count":1,"type":"VEC4"},{"bufferView":30,"componentType":5126,"count":1,"type":"VEC3"},{"bufferView":31,"componentType":5126,"count":1,"type":"VEC4"},{"bufferView":32,"componentType":5126,"count":1,"type":"VEC3"},{"bufferView":33,"componentType":5126,"count":1,"type":"VEC4"}],"bufferViews":[{"buffer":0,"byteOffset":0,"byteLength":14688,"target":34962},{"buffer":0,"byteOffset":14688,"byteLength":14688,"target":34962},{"buffer":0,"byteOffset":29376,"byteLength":9792,"target":34962},{"buffer":0,"byteOffset":39168,"byteLength":9792,"target":34962},{"buffer":0,"byteOffset":48960,"byteLength":19584,"target":34962},{"buffer":0,"byteOffset":68544,"byteLength":13968,"target":34963},{"buffer":0,"byteOffset":82512,"byteLength":832},{"buffer":0,"byteOffset":83344,"byteLength":4},{"buffer":0,"byteOffset":83348,"byteLength":12},{"buffer":0,"byteOffset":83360,"byteLength":16},{"buffer":0,"byteOffset":83376,"byteLength":12},{"buffer":0,"byteOffset":83388,"byteLength":16},{"buffer":0,"byteOffset":83404,"byteLength":12},{"buffer":0,"byteOffset":83416,"byteLength":16},{"buffer":0,"byteOffset":83432,"byteLength":12},{"buffer":0,"byteOffset":83444,"byteLength":16},{"buffer":0,"byteOffset":83460,"byteLength":12},{"buffer":0,"byteOffset":83472,"byteLength":16},{"buffer":0,"byteOffset":83488,"byteLength":12},{"buffer":0,"byteOffset":83500,"byteLength":16},{"buffer":0,"byteOffset":83516,"byteLength":12},{"buffer":0,"byteOffset":83528,"byteLength":16},{"buffer":0,"byteOffset":83544,"byteLength":12},{"buffer":0,"byteOffset":83556,"byteLength":16},{"buffer":0,"byteOffset":83572,"byteLength":12},{"buffer":0,"byteOffset":83584,"byteLength":16},{"buffer":0,"byteOffset":83600,"byteLength":12},{"buffer":0,"byteOffset":83612,"byteLength":16},{"buffer":0,"byteOffset":83628,"byteLength":12},{"buffer":0,"byteOffset":83640,"byteLength":16},{"buffer":0,"byteOffset":83656,"byteLength":12},{"buffer":0,"byteOffset":83668,"byteLength":16},{"buffer":0,"byteOffset":83684,"byteLength":12},{"buffer":0,"byteOffset":83696,"byteLength":16}],"buffers":[{"uri":"w_awp.bin","byteLength":83712}],"animations":[{"name":"idle","samplers":[{"input":7,"output":8,"interpolation":"LINEAR"},{"input":7,"output":9,"interpolation":"LINEAR"},{"input":7,"output":10,"interpolation":"LINEAR"},{"input":7,"output":11,"interpolation":"LINEAR"},{"input":7,"output":12,"interpolation":"LINEAR"},{"input":7,"output":13,"interpolation":"LINEAR"},{"input":7,"output":14,"interpolation":"LINEAR"},{"input":7,"output":15,"interpolation":"LINEAR"},{"input":7,"output":16,"interpolation":"LINEAR"},{"input":7,"output":17,"interpolation":"LINEAR"},{"input":7,"output":18,"interpolation":"LINEAR"},{"input":7,"output":19,"interpolation":"LINEAR"},{"input":7,"output":20,"interpolation":"LINEAR"},{"input":7,"output":21,"interpolation":"LINEAR"},{"input":7,"output":22,"interpolation":"LINEAR"},{"input":7,"output":23,"interpolation":"LINEAR"},{"input":7,"output":24,"interpolation":"LINEAR"},{"input":7,"output":25,"interpolation":"LINEAR"},{"input":7,"output":26,"interpolation":"LINEAR"},{"input":7,"output":27,"interpolation":"LINEAR"},{"input":7,"output":28,"interpolation":"LINEAR"},{"input":7,"output":29,"interpolation":"LINEAR"},{"input":7,"output":30,"interpolation":"LINEAR"},{"input":7,"output":31,"interpolation":"LINEAR"},{"input":7,"output":32,"interpolation":"LINEAR"},{"input":7,"output":33,"interpolation":"LINEAR"}],"channels":[{"sampler":0,"target":{"node":0,"path":"translation"}},{"sampler":1,"target":{"node":0,"path":"rotation"}},{"sampler":2,"target":{"node":1,"path":"translation"}},{"sampler":3,"target":{"node":1,"path":"rotation"}},{"sampler":4,"target":{"node":2,"path":"translation"}},{"sampler":5,"target":{"node":2,"path":"rotation"}},{"sampler":6,"target":{"node":3,"path":"translation"}},{"sampler":7,"target":{"node":3,"path":"rotation"}},{"sampler":8,"target":{"node":4,"path":"translation"}},{"sampler":9,"target":{"node":4,"path":"rotation"}},{"sampler":10,"target":{"node":5,"path":"translation"}},{"sampler":11,"target":{"node":5,"path":"rotation"}},{"sampler":12,"target":{"node":6,"path":"translation"}},{"sampler":13,"target":{"node":6,"path":"rotation"}},{"sampler":14,"target":{"node":7,"path":"translation"}},{"sampler":15,"target":{"node":7,"path":"rotation"}},{"sampler":16,"target":{"node":8,"path":"translation"}},{"sampler":17,"target":{"node":8,"path":"rotation"}},{"sampler":18,"target":{"node":9,"path":"translation"}},{"sampler":19,"target":{"node":9,"path":"rotation"}},{"sampler":20,"target":{"node":10,"path":"translation"}},{"sampler":21,"target":{"node":10,"path":"rotation"}},{"sampler":22,"target":{"node":11,"path":"translation"}},{"sampler":23,"target":{"node":11,"path":"rotation"}},{"sampler":24,"target":{"node":12,"path":"translation"}},{"sampler":25,"target":{"node":12,"path":"rotation"}}]}]}