{"asset":{"version":"2.0","generator":"obj2glb"},"scene":0,"scenes":[{"nodes":[0]}],"nodes":[{"name":"ak","mesh":0}],"meshes":[{"name":"ak","primitives":[{"attributes":{"POSITION":0,"NORMAL":1,"TEXCOORD_0":2},"indices":3,"material":0}]}],"materials":[{"name":"ak","pbrMetallicRoughness":{"metallicFactor":0.0,"roughnessFactor":0.65,"baseColorTexture":{"index":0},"baseColorFactor":[0.8,0.8,0.8,1.0]},"doubleSided":true}],"textures":[{"sampler":0,"source":0}],"images":[{"mimeType":"image/png","bufferView":4}],"samplers":[{"magFilter":9729,"minFilter":9987,"wrapS":10497,"wrapT":10497}],"accessors":[{"bufferView":0,"componentType":5126,"count":3537,"type":"VEC3","min":[-0.700676,-3.484214,-12.773411],"max":[0.700099,2.028046,11.861883]},{"bufferView":1,"componentType":5126,"count":3537,"type":"VEC3"},{"bufferView":2,"componentType":5126,"count":3537,"type":"VEC2"},{"bufferView":3,"componentType":5125,"count":12702,"type":"SCALAR"}],"bufferViews":[{"buffer":0,"byteOffset":0,"byteLength":42444,"target":34962},{"buffer":0,"byteOffset":42444,"byteLength":42444,"target":34962},{"buffer":0,"byteOffset":84888,"byteLength":28296,"target":34962},{"buffer":0,"byteOffset":113184,"byteLength":50808,"target":34963},{"buffer":0,"byteOffset":163992,"byteLength":1804943}],"buffers":[{"uri":"ak47_beast_world.bin","byteLength":1968935}]}