{"asset":{"version":"2.0","generator":"deagle_3p_static"},"scene":0,"scenes":[{"nodes":[0]}],"nodes":[{"name":"deagle_world_static","mesh":0}],"meshes":[{"name":"deagle_pistol","primitives":[{"attributes":{"POSITION":0,"NORMAL":1,"TEXCOORD_0":2},"indices":3,"material":0,"mode":4},{"attributes":{"POSITION":4,"NORMAL":5,"TEXCOORD_0":6},"indices":7,"material":1,"mode":4},{"attributes":{"POSITION":8,"NORMAL":9,"TEXCOORD_0":10},"indices":11,"material":2,"mode":4},{"attributes":{"POSITION":12,"NORMAL":13,"TEXCOORD_0":14},"indices":15,"material":3,"mode":4},{"attributes":{"POSITION":16,"NORMAL":17,"TEXCOORD_0":18},"indices":19,"material":4,"mode":4},{"attributes":{"POSITION":20,"NORMAL":21,"TEXCOORD_0":22},"indices":23,"material":5,"mode":4},{"attributes":{"POSITION":24,"NORMAL":25,"TEXCOORD_0":26},"indices":27,"material":6,"mode":4},{"attributes":{"POSITION":32,"NORMAL":33,"TEXCOORD_0":34},"indices":35,"material":8,"mode":4},{"attributes":{"POSITION":36,"NORMAL":37,"TEXCOORD_0":38},"indices":39,"material":9,"mode":4},{"attributes":{"POSITION":40,"NORMAL":41,"TEXCOORD_0":42},"indices":43,"material":10,"mode":4}]}],"materials":[{"name":"DESERTEAGLE_BORNBEAST-1","pbrMetallicRoughness":{"baseColorTexture":{"index":0},"metallicFactor":0.0,"roughnessFactor":0.75},"doubleSided":false},{"name":"DESERTEAGLE_BORNBEAST-2","pbrMetallicRoughness":{"baseColorTexture":{"index":1},"metallicFactor":0.0,"roughnessFactor":0.75},"doubleSided":false},{"name":"DESERTEAGLE_BORNBEAST-3","pbrMetallicRoughness":{"baseColorTexture":{"index":2},"metallicFactor":0.0,"roughnessFactor":0.75},"doubleSided":false},{"name":"DESERTEAGLE_BORNBEAST-4","pbrMetallicRoughness":{"baseColorTexture":{"index":3},"metallicFactor":0.0,"roughnessFactor":0.75},"doubleSided":false},{"name":"DESERTEAGLE_BORNBEAST-7","pbrMetallicRoughness":{"baseColorTexture":{"index":4},"metallicFactor":0.0,"roughnessFactor":0.75},"doubleSided":false},{"name":"DESERTEAGLE_BORNBEAST-5","pbrMetallicRoughness":{"baseColorTexture":{"index":5},"metallicFactor":0.0,"roughnessFactor":0.75},"doubleSided":false},{"name":"DESERTEAGLE_BORNBEAST-6","pbrMetallicRoughness":{"baseColorTexture":{"index":6},"metallicFactor":0.0,"roughnessFactor":0.75},"doubleSided":false},{"name":"KNIFE_BORNBEAST_S","pbrMetallicRoughness":{"baseColorTexture":{"index":7},"metallicFactor":0.0,"roughnessFactor":0.75},"doubleSided":false},{"name":"DESERTEAGLE_BORNBEAST","pbrMetallicRoughness":{"baseColorTexture":{"index":8},"metallicFactor":0.0,"roughnessFactor":0.75},"doubleSided":false,"alphaMode":"BLEND"},{"name":"ref","pbrMetallicRoughness":{"baseColorTexture":{"index":9},"metallicFactor":0.0,"roughnessFactor":0.75},"doubleSided":false,"alphaMode":"BLEND"},{"name":"hh","pbrMetallicRoughness":{"baseColorTexture":{"index":10},"metallicFactor":0.0,"roughnessFactor":0.75},"doubleSided":false,"alphaMode":"BLEND"},{"name":"right","pbrMetallicRoughness":{"baseColorTexture":{"index":11},"metallicFactor":0.0,"roughnessFactor":0.75},"doubleSided":false,"alphaMode":"BLEND"}],"textures":[{"sampler":0,"source":0},{"sampler":0,"source":1},{"sampler":0,"source":2},{"sampler":0,"source":3},{"sampler":0,"source":4},{"sampler":0,"source":5},{"sampler":0,"source":6},{"sampler":0,"source":7},{"sampler":0,"source":8},{"sampler":0,"source":9},{"sampler":0,"source":10},{"sampler":0,"source":11}],"images":[{"uri":"textures/DESERTEAGLE_BORNBEAST-1.png"},{"uri":"textures/DESERTEAGLE_BORNBEAST-2.png"},{"uri":"textures/DESERTEAGLE_BORNBEAST-3.png"},{"uri":"textures/DESERTEAGLE_BORNBEAST-4.png"},{"uri":"textures/DESERTEAGLE_BORNBEAST-7.png"},{"uri":"textures/DESERTEAGLE_BORNBEAST-5.png"},{"uri":"textures/DESERTEAGLE_BORNBEAST-6.png"},{"uri":"textures/KNIFE_BORNBEAST_S.png"},{"uri":"textures/DESERTEAGLE_BORNBEAST.png"},{"uri":"textures/ref.png"},{"uri":"textures/hh.png"},{"uri":"textures/right.png"}],"samplers":[{"magFilter":9729,"minFilter":9987,"wrapS":10497,"wrapT":10497}],"accessors":[{"bufferView":0,"componentType":5126,"count":462,"type":"VEC3","min":[0.07979916665509457,-0.2933549881945204,0.6739237176642711],"max":[0.15452787180099836,-0.016276026777190956,1.1463637273536251]},{"bufferView":1,"componentType":5126,"count":462,"type":"VEC3"},{"bufferView":2,"componentType":5126,"count":462,"type":"VEC2"},{"bufferView":3,"componentType":5125,"count":1548,"type":"SCALAR"},{"bufferView":4,"componentType":5126,"count":208,"type":"VEC3","min":[0.08809803275952366,-0.1277816492262451,0.6953503652320207],"max":[0.1460804709437714,-0.024660889212483158,1.0854943807349695]},{"bufferView":5,"componentType":5126,"count":208,"type":"VEC3"},{"bufferView":6,"componentType":5126,"count":208,"type":"VEC2"},{"bufferView":7,"componentType":5125,"count":594,"type":"SCALAR"},{"bufferView":8,"componentType":5126,"count":402,"type":"VEC3","min":[0.07979916665509457,-0.10296231877997683,0.6932277234778706],"max":[0.15452787180099836,-0.02365312611474487,1.0854943807349695]},{"bufferView":9,"componentType":5126,"count":402,"type":"VEC3"},{"bufferView":10,"componentType":5126,"count":402,"type":"VEC2"},{"bufferView":11,"componentType":5125,"count":1440,"type":"SCALAR"},{"bufferView":12,"componentType":5126,"count":657,"type":"VEC3","min":[0.07984025785451007,-0.2933549397478662,0.6927197602973292],"max":[0.15463351210875825,-0.016276026777190956,1.0864197118506926]},{"bufferView":13,"componentType":5126,"count":657,"type":"VEC3"},{"bufferView":14,"componentType":5126,"count":657,"type":"VEC2"},{"bufferView":15,"componentType":5125,"count":1938,"type":"SCALAR"},{"bufferView":16,"componentType":5126,"count":426,"type":"VEC3","min":[0.08465834424933227,-0.3030953574892335,0.6571597215400028],"max":[0.150188083298902,-0.021133713828525285,1.256091719602166]},{"bufferView":17,"componentType":5126,"count":426,"type":"VEC3"},{"bufferView":18,"componentType":5126,"count":426,"type":"VEC2"},{"bufferView":19,"componentType":5125,"count":1386,"type":"SCALAR"},{"bufferView":20,"componentType":5126,"count":190,"type":"VEC3","min":[0.0903427113797862,-0.2878871257832198,0.6866237176642722],"max":[0.1445933787500418,-0.01573011504075604,1.1311237661109486]},{"bufferView":21,"componentType":5126,"count":190,"type":"VEC3"},{"bufferView":22,"componentType":5126,"count":190,"type":"VEC2"},{"bufferView":23,"componentType":5125,"count":576,"type":"SCALAR"},{"bufferView":24,"componentType":5126,"count":238,"type":"VEC3","min":[0.08668437713211692,-0.10395956913457585,0.9411317777381365],"max":[0.14726684678853025,-0.021066662519145084,1.1463637273536251]},{"bufferView":25,"componentType":5126,"count":238,"type":"VEC3"},{"bufferView":26,"componentType":5126,"count":238,"type":"VEC2"},{"bufferView":27,"componentType":5125,"count":1164,"type":"SCALAR"},{"bufferView":28,"componentType":5126,"count":3170,"type":"VEC3","min":[0.17236801184443057,-0.17383261663958913,0.23561836395264965],"max":[0.23668713764500074,-0.11552910230237935,0.5495705489329151]},{"bufferView":29,"componentType":5126,"count":3170,"type":"VEC3"},{"bufferView":30,"componentType":5126,"count":3170,"type":"VEC2"},{"bufferView":31,"componentType":5125,"count":4710,"type":"SCALAR"},{"bufferView":32,"componentType":5126,"count":2585,"type":"VEC3","min":[0.07979916665509457,-0.3030953574892335,0.6571597215400028],"max":[0.15463351210875825,-0.01573011504075604,1.256091719602166]},{"bufferView":33,"componentType":5126,"count":2585,"type":"VEC3"},{"bufferView":34,"componentType":5126,"count":2585,"type":"VEC2"},{"bufferView":35,"componentType":5125,"count":8646,"type":"SCALAR"},{"bufferView":36,"componentType":5126,"count":2578,"type":"VEC3","min":[0.07979916665509457,-0.3030953574892335,0.6571597215400028],"max":[0.15463351210875825,-0.01573011504075604,1.256091719602166]},{"bufferView":37,"componentType":5126,"count":2578,"type":"VEC3"},{"bufferView":38,"componentType":5126,"count":2578,"type":"VEC2"},{"bufferView":39,"componentType":5125,"count":8646,"type":"SCALAR"},{"bufferView":40,"componentType":5126,"count":48,"type":"VEC3","min":[0.06752632919695746,-0.09433097037317001,0.7159704971061056],"max":[0.10186738944877835,0.010772286443088,1.1087717389808207]},{"bufferView":41,"componentType":5126,"count":48,"type":"VEC3"},{"bufferView":42,"componentType":5126,"count":48,"type":"VEC2"},{"bufferView":43,"componentType":5125,"count":180,"type":"SCALAR"},{"bufferView":44,"componentType":5126,"count":24,"type":"VEC3","min":[0.1793854979051743,-0.13839945992055389,0.37897373961630404],"max":[0.20813904885405948,-0.12906215476688,0.40934121797762907]},{"bufferView":45,"componentType":5126,"count":24,"type":"VEC3"},{"bufferView":46,"componentType":5126,"count":24,"type":"VEC2"},{"bufferView":47,"componentType":5125,"count":90,"type":"SCALAR"}],"bufferViews":[{"buffer":0,"byteOffset":0,"byteLength":5544,"target":34962},{"buffer":0,"byteOffset":5544,"byteLength":5544,"target":34962},{"buffer":0,"byteOffset":11088,"byteLength":3696,"target":34962},{"buffer":0,"byteOffset":14784,"byteLength":6192,"target":34963},{"buffer":0,"byteOffset":20976,"byteLength":2496,"target":34962},{"buffer":0,"byteOffset":23472,"byteLength":2496,"target":34962},{"buffer":0,"byteOffset":25968,"byteLength":1664,"target":34962},{"buffer":0,"byteOffset":27632,"byteLength":2376,"target":34963},{"buffer":0,"byteOffset":30008,"byteLength":4824,"target":34962},{"buffer":0,"byteOffset":34832,"byteLength":4824,"target":34962},{"buffer":0,"byteOffset":39656,"byteLength":3216,"target":34962},{"buffer":0,"byteOffset":42872,"byteLength":5760,"target":34963},{"buffer":0,"byteOffset":48632,"byteLength":7884,"target":34962},{"buffer":0,"byteOffset":56516,"byteLength":7884,"target":34962},{"buffer":0,"byteOffset":64400,"byteLength":5256,"target":34962},{"buffer":0,"byteOffset":69656,"byteLength":7752,"target":34963},{"buffer":0,"byteOffset":77408,"byteLength":5112,"target":34962},{"buffer":0,"byteOffset":82520,"byteLength":5112,"target":34962},{"buffer":0,"byteOffset":87632,"byteLength":3408,"target":34962},{"buffer":0,"byteOffset":91040,"byteLength":5544,"target":34963},{"buffer":0,"byteOffset":96584,"byteLength":2280,"target":34962},{"buffer":0,"byteOffset":98864,"byteLength":2280,"target":34962},{"buffer":0,"byteOffset":101144,"byteLength":1520,"target":34962},{"buffer":0,"byteOffset":102664,"byteLength":2304,"target":34963},{"buffer":0,"byteOffset":104968,"byteLength":2856,"target":34962},{"buffer":0,"byteOffset":107824,"byteLength":2856,"target":34962},{"buffer":0,"byteOffset":110680,"byteLength":1904,"target":34962},{"buffer":0,"byteOffset":112584,"byteLength":4656,"target":34963},{"buffer":0,"byteOffset":117240,"byteLength":38040,"target":34962},{"buffer":0,"byteOffset":155280,"byteLength":38040,"target":34962},{"buffer":0,"byteOffset":193320,"byteLength":25360,"target":34962},{"buffer":0,"byteOffset":218680,"byteLength":18840,"target":34963},{"buffer":0,"byteOffset":237520,"byteLength":31020,"target":34962},{"buffer":0,"byteOffset":268540,"byteLength":31020,"target":34962},{"buffer":0,"byteOffset":299560,"byteLength":20680,"target":34962},{"buffer":0,"byteOffset":320240,"byteLength":34584,"target":34963},{"buffer":0,"byteOffset":354824,"byteLength":30936,"target":34962},{"buffer":0,"byteOffset":385760,"byteLength":30936,"target":34962},{"buffer":0,"byteOffset":416696,"byteLength":20624,"target":34962},{"buffer":0,"byteOffset":437320,"byteLength":34584,"target":34963},{"buffer":0,"byteOffset":471904,"byteLength":576,"target":34962},{"buffer":0,"byteOffset":472480,"byteLength":576,"target":34962},{"buffer":0,"byteOffset":473056,"byteLength":384,"target":34962},{"buffer":0,"byteOffset":473440,"byteLength":720,"target":34963},{"buffer":0,"byteOffset":474160,"byteLength":288,"target":34962},{"buffer":0,"byteOffset":474448,"byteLength":288,"target":34962},{"buffer":0,"byteOffset":474736,"byteLength":192,"target":34962},{"buffer":0,"byteOffset":474928,"byteLength":360,"target":34963}],"buffers":[{"uri":"deagle_world_static.bin","byteLength":475288}]}